M48
;Layer_Color=9474304
;FILE_FORMAT=4:4
METRIC,LZ
;TYPE=PLATED
T1F00S00C0.3000
T2F00S00C1.0200
T3F00S00C1.3000
T4F00S00C2.5400
%
T01
X0075Y00245
X0082595Y0027432
X00962924Y00419778
X00015557Y00269963
X00017526Y00159766
X00015Y00575
X0036291Y0057709
X00946922Y0044848
T02
X00795Y000419
Y001181
X00925Y001446
Y0017
Y001954
Y002208
Y002462
X009173Y00042
X009427
X006386Y002048
Y002302
Y002556
Y00281
Y003064
Y003318
Y003572
Y003826
Y00408
X0041Y00408
Y003826
Y003572
Y003318
Y003064
Y00281
Y002556
Y002302
Y002048
X002958Y0027
X002704
X00245
X002196
X001942
X001619Y004238
X001365
Y005762
X001619
X001873
X002127
X002381
X002635
Y004238
X002381
X002127
X001873
X0041Y004334
Y004588
Y004842
Y005096
Y00535
Y005604
X006386Y005604
Y00535
Y005096
Y004842
Y004588
Y004334
X007365Y004238
X007619
X007873
X008127
X008381
X008635
Y005762
X008381
X008127
X007873
X007619
X007365
T03
X00979746Y00506124
Y00556924
T04
X0101Y0003
X0003
Y0062
X0101
M30
