G04*
G04 #@! TF.GenerationSoftware,Altium Limited,Altium Designer,22.8.2 (66)*
G04*
G04 Layer_Color=8421504*
%FSLAX44Y44*%
%MOMM*%
G71*
G04*
G04 #@! TF.SameCoordinates,AD83E0BB-F914-43FB-B5B6-00057FB2F5A7*
G04*
G04*
G04 #@! TF.FilePolarity,Positive*
G04*
G01*
G75*
%ADD12R,1.2000X1.5200*%
%ADD13R,1.1500X1.4500*%
%ADD14R,2.3700X3.3700*%
%ADD15R,1.1000X1.3800*%
%ADD16R,4.7000X2.0500*%
%ADD17R,0.7620X1.2700*%
%ADD18R,2.6700X2.5400*%
%ADD19R,1.3000X1.9200*%
D12*
X962690Y448480D02*
D03*
X980430D02*
D03*
X324530Y577090D02*
D03*
X342270D02*
D03*
D13*
X948810Y419778D02*
D03*
X930810D02*
D03*
D14*
X931762Y375836D02*
D03*
X979862D02*
D03*
X1004050Y320000D02*
D03*
X955950D02*
D03*
X825950D02*
D03*
X874050D02*
D03*
Y245000D02*
D03*
X825950D02*
D03*
X84050Y270000D02*
D03*
X35950D02*
D03*
X239050Y340000D02*
D03*
X190950D02*
D03*
X25950D02*
D03*
X74050D02*
D03*
D15*
X923850Y320000D02*
D03*
X906150D02*
D03*
X148850Y340000D02*
D03*
X131150D02*
D03*
D16*
X705500Y348250D02*
D03*
Y291750D02*
D03*
X55500Y518250D02*
D03*
Y461750D02*
D03*
D17*
X705243Y230000D02*
D03*
X48243Y405000D02*
D03*
X28243Y575000D02*
D03*
D18*
X728753Y230000D02*
D03*
X71753Y405000D02*
D03*
X51753Y575000D02*
D03*
D19*
X766900Y320000D02*
D03*
X793100D02*
D03*
Y245000D02*
D03*
X766900D02*
D03*
X36900Y210000D02*
D03*
X63100D02*
D03*
Y160000D02*
D03*
X36900D02*
D03*
M02*
