G04*
G04 #@! TF.GenerationSoftware,Altium Limited,Altium Designer,22.8.2 (66)*
G04*
G04 Layer_Color=65535*
%FSLAX44Y44*%
%MOMM*%
G71*
G04*
G04 #@! TF.SameCoordinates,AD83E0BB-F914-43FB-B5B6-00057FB2F5A7*
G04*
G04*
G04 #@! TF.FilePolarity,Positive*
G04*
G01*
G75*
%ADD10C,0.2000*%
%ADD11C,0.2540*%
D10*
X904500Y42000D02*
G03*
X903500Y42000I-500J0D01*
G01*
D02*
G03*
X904500Y42000I500J0D01*
G01*
X795000Y13900D02*
G03*
X795000Y12900I0J-500D01*
G01*
D02*
G03*
X795000Y13900I0J500D01*
G01*
X855000Y79900D02*
G03*
X735000Y79900I-60000J0D01*
G01*
D02*
G03*
X855000Y79900I60000J0D01*
G01*
X308000Y632700D02*
G03*
X308000Y633700I0J500D01*
G01*
D02*
G03*
X308000Y632700I0J-500D01*
G01*
X908000Y633700D02*
G03*
X908000Y632700I0J-500D01*
G01*
D02*
G03*
X908000Y633700I0J500D01*
G01*
X938746Y582324D02*
X1020746D01*
X938746Y480724D02*
Y582324D01*
Y480724D02*
X1020746D01*
Y582324D01*
X922746Y557524D02*
X932746D01*
X927746Y552524D02*
Y562524D01*
X926746Y500524D02*
Y510524D01*
X971560Y442130D02*
Y454830D01*
X939810Y414278D02*
Y425278D01*
X946812Y392636D02*
X964812D01*
X946812Y359036D02*
X964812D01*
X909500Y58000D02*
X950300D01*
Y54000D02*
Y58000D01*
Y26000D02*
Y30000D01*
X909300Y26000D02*
X950100D01*
X909300Y54000D02*
Y58000D01*
Y26000D02*
Y30000D01*
X378000Y6700D02*
Y262700D01*
X112000Y282700D02*
X358000D01*
X112000Y6700D02*
X378000D01*
X112000D02*
Y282700D01*
X98400Y373000D02*
X301600D01*
Y627000D01*
X98400D02*
X301600D01*
X98400Y373000D02*
Y627000D01*
X698400Y373000D02*
Y627000D01*
X901600D01*
Y373000D02*
Y627000D01*
X698400Y373000D02*
X901600D01*
X653400Y137600D02*
Y627600D01*
X408400Y627600D02*
X653400Y627600D01*
X393400Y607600D02*
X393400Y137600D01*
X653400D01*
X912300Y130150D02*
X937700D01*
Y260400D01*
X912300Y130150D02*
Y250400D01*
X922000Y260650D02*
X937700D01*
X971000Y303200D02*
X989000D01*
X971000Y336800D02*
X989000D01*
X915000Y314500D02*
Y325500D01*
X666500Y286500D02*
X676000D01*
X666500D02*
Y353500D01*
X676000D01*
X733500Y311000D02*
Y329000D01*
X706100Y219750D02*
X711793D01*
X706100Y240250D02*
X711793D01*
X780000Y313000D02*
Y327000D01*
Y238000D02*
Y252000D01*
X333400Y570740D02*
Y583440D01*
X841000Y336800D02*
X859000D01*
X841000Y303200D02*
X859000D01*
X140000Y334500D02*
Y345500D01*
X841000Y228200D02*
X859000D01*
X841000Y261800D02*
X859000D01*
X50000Y203000D02*
Y217000D01*
X51000Y253200D02*
X69000D01*
X51000Y286800D02*
X69000D01*
X49100Y394750D02*
X54793D01*
X49100Y415250D02*
X54793D01*
X29100Y564750D02*
X34793D01*
X29100Y585250D02*
X34793D01*
X16500Y456500D02*
X26000D01*
X16500D02*
Y523500D01*
X26000D01*
X83500Y481000D02*
Y499000D01*
X50000Y153000D02*
Y167000D01*
X206000Y323200D02*
X224000D01*
X206000Y356800D02*
X224000D01*
X41000D02*
X59000D01*
X41000Y323200D02*
X59000D01*
D11*
X447540Y112710D02*
X460869D01*
X454204D01*
Y92717D01*
X477530D02*
X470866D01*
X467534Y96049D01*
Y102713D01*
X470866Y106046D01*
X477530D01*
X480863Y102713D01*
Y99381D01*
X467534D01*
X490859Y106046D02*
X497524D01*
X500856Y102713D01*
Y92717D01*
X490859D01*
X487527Y96049D01*
X490859Y99381D01*
X500856D01*
X507521Y92717D02*
Y106046D01*
X510853D01*
X514185Y102713D01*
Y92717D01*
Y102713D01*
X517518Y106046D01*
X520850Y102713D01*
Y92717D01*
X547508D02*
X554172D01*
X550840D01*
Y112710D01*
X547508Y109378D01*
X564169Y112710D02*
X577498D01*
Y109378D01*
X564169Y96049D01*
Y92717D01*
X584163Y106046D02*
X587495D01*
Y102713D01*
X584163D01*
Y106046D01*
Y96049D02*
X587495D01*
Y92717D01*
X584163D01*
Y96049D01*
X447540Y82622D02*
X454204D01*
X450872D01*
Y62628D01*
X447540D01*
X454204D01*
X467533D02*
X474198D01*
X477530Y65960D01*
Y72625D01*
X474198Y75957D01*
X467533D01*
X464201Y72625D01*
Y65960D01*
X467533Y62628D01*
X484195Y82622D02*
X497524D01*
X490859D01*
Y62628D01*
X524182Y82622D02*
Y62628D01*
X534179D01*
X537511Y65960D01*
Y69293D01*
X534179Y72625D01*
X524182D01*
X534179D01*
X537511Y75957D01*
Y79290D01*
X534179Y82622D01*
X524182D01*
X547508Y75957D02*
X554172D01*
X557505Y72625D01*
Y62628D01*
X547508D01*
X544175Y65960D01*
X547508Y69293D01*
X557505D01*
X564169Y62628D02*
X574166D01*
X577498Y65960D01*
X574166Y69293D01*
X567501D01*
X564169Y72625D01*
X567501Y75957D01*
X577498D01*
X594159Y62628D02*
X587495D01*
X584163Y65960D01*
Y72625D01*
X587495Y75957D01*
X594159D01*
X597492Y72625D01*
Y69293D01*
X584163D01*
X617485Y82622D02*
Y62628D01*
X607488D01*
X604156Y65960D01*
Y72625D01*
X607488Y75957D01*
X617485D01*
X447540Y32540D02*
Y52534D01*
X457537D01*
X460869Y49201D01*
Y42537D01*
X457537Y39204D01*
X447540D01*
X477530Y32540D02*
X470866D01*
X467534Y35872D01*
Y42537D01*
X470866Y45869D01*
X477530D01*
X480863Y42537D01*
Y39204D01*
X467534D01*
X490859Y49201D02*
Y45869D01*
X487527D01*
X494192D01*
X490859D01*
Y35872D01*
X494192Y32540D01*
X524182Y52534D02*
X537511D01*
X530846D01*
Y32540D01*
X544175Y45869D02*
Y32540D01*
Y39204D01*
X547508Y42537D01*
X550840Y45869D01*
X554172D01*
X567501D02*
X574166D01*
X577498Y42537D01*
Y32540D01*
X567501D01*
X564169Y35872D01*
X567501Y39204D01*
X577498D01*
X597492Y45869D02*
X587495D01*
X584163Y42537D01*
Y35872D01*
X587495Y32540D01*
X597492D01*
X604156D02*
Y52534D01*
Y39204D02*
X614153Y45869D01*
X604156Y39204D02*
X614153Y32540D01*
X634146D02*
X627482D01*
X624150Y35872D01*
Y42537D01*
X627482Y45869D01*
X634146D01*
X637479Y42537D01*
Y39204D01*
X624150D01*
X644143Y45869D02*
Y32540D01*
Y39204D01*
X647476Y42537D01*
X650808Y45869D01*
X654140D01*
X1007461Y417998D02*
X1004922Y420537D01*
X999843D01*
X997304Y417998D01*
Y407842D01*
X999843Y405303D01*
X1004922D01*
X1007461Y407842D01*
X1022696Y420537D02*
X1017617Y417998D01*
X1012539Y412920D01*
Y407842D01*
X1015078Y405303D01*
X1020157D01*
X1022696Y407842D01*
Y410381D01*
X1020157Y412920D01*
X1012539D01*
X909687Y79618D02*
Y64383D01*
X919843D01*
X935078Y79618D02*
X924922D01*
Y64383D01*
X935078D01*
X924922Y72000D02*
X930000D01*
X940157Y79618D02*
Y64383D01*
X947774D01*
X950313Y66922D01*
Y77078D01*
X947774Y79618D01*
X940157D01*
X907304Y627617D02*
Y614922D01*
X909843Y612383D01*
X914922D01*
X917461Y614922D01*
Y627617D01*
X932696Y612383D02*
X922539D01*
X932696Y622539D01*
Y625078D01*
X930157Y627617D01*
X925078D01*
X922539Y625078D01*
X308003Y390397D02*
Y377702D01*
X310543Y375162D01*
X315621D01*
X318160Y377702D01*
Y390397D01*
X323238Y375162D02*
X328317D01*
X325778D01*
Y390397D01*
X323238Y387858D01*
X997304Y376347D02*
Y391581D01*
X1004922D01*
X1007461Y389042D01*
Y383964D01*
X1004922Y381425D01*
X997304D01*
X1002383D02*
X1007461Y376347D01*
X1012539Y391581D02*
X1022696D01*
Y389042D01*
X1012539Y378886D01*
Y376347D01*
X997304Y282383D02*
Y297617D01*
X1004922D01*
X1007461Y295078D01*
Y290000D01*
X1004922Y287461D01*
X997304D01*
X1002383D02*
X1007461Y282383D01*
X1022696Y297617D02*
X1017617Y295078D01*
X1012539Y290000D01*
Y284922D01*
X1015078Y282383D01*
X1020157D01*
X1022696Y284922D01*
Y287461D01*
X1020157Y290000D01*
X1012539D01*
X817304Y207383D02*
Y222617D01*
X824922D01*
X827461Y220078D01*
Y215000D01*
X824922Y212461D01*
X817304D01*
X822383D02*
X827461Y207383D01*
X842696Y222617D02*
X832539D01*
Y215000D01*
X837617Y217539D01*
X840157D01*
X842696Y215000D01*
Y209922D01*
X840157Y207383D01*
X835078D01*
X832539Y209922D01*
X817304Y282383D02*
Y297617D01*
X824922D01*
X827461Y295078D01*
Y290000D01*
X824922Y287461D01*
X817304D01*
X822383D02*
X827461Y282383D01*
X840157D02*
Y297617D01*
X832539Y290000D01*
X842696D01*
X182304Y302383D02*
Y317617D01*
X189922D01*
X192461Y315078D01*
Y310000D01*
X189922Y307461D01*
X182304D01*
X187383D02*
X192461Y302383D01*
X197539Y315078D02*
X200078Y317617D01*
X205157D01*
X207696Y315078D01*
Y312539D01*
X205157Y310000D01*
X202617D01*
X205157D01*
X207696Y307461D01*
Y304922D01*
X205157Y302383D01*
X200078D01*
X197539Y304922D01*
X17304Y232383D02*
Y247617D01*
X24922D01*
X27461Y245078D01*
Y240000D01*
X24922Y237461D01*
X17304D01*
X22383D02*
X27461Y232383D01*
X42696D02*
X32539D01*
X42696Y242539D01*
Y245078D01*
X40157Y247617D01*
X35078D01*
X32539Y245078D01*
X19843Y302383D02*
Y317617D01*
X27461D01*
X30000Y315078D01*
Y310000D01*
X27461Y307461D01*
X19843D01*
X24922D02*
X30000Y302383D01*
X35078D02*
X40157D01*
X37618D01*
Y317617D01*
X35078Y315078D01*
X667304Y276117D02*
Y260882D01*
X677461D01*
X692696D02*
X682539D01*
X692696Y271039D01*
Y273578D01*
X690157Y276117D01*
X685078D01*
X682539Y273578D01*
X19843Y447617D02*
Y432383D01*
X30000D01*
X35078D02*
X40157D01*
X37618D01*
Y447617D01*
X35078Y445078D01*
X922461Y122618D02*
X917383D01*
X919922D01*
Y109922D01*
X917383Y107382D01*
X914843D01*
X912304Y109922D01*
X935157Y107382D02*
Y122618D01*
X927539Y115000D01*
X937696D01*
X397461Y22617D02*
X392383D01*
X394922D01*
Y9922D01*
X392383Y7383D01*
X389843D01*
X387304Y9922D01*
X402539Y20078D02*
X405078Y22617D01*
X410157D01*
X412696Y20078D01*
Y17539D01*
X410157Y15000D01*
X407617D01*
X410157D01*
X412696Y12461D01*
Y9922D01*
X410157Y7383D01*
X405078D01*
X402539Y9922D01*
X677461Y152618D02*
X672383D01*
X674922D01*
Y139922D01*
X672383Y137382D01*
X669843D01*
X667304Y139922D01*
X692696Y137382D02*
X682539D01*
X692696Y147539D01*
Y150078D01*
X690157Y152618D01*
X685078D01*
X682539Y150078D01*
X1010000Y474893D02*
X1004922D01*
X1007461D01*
Y462198D01*
X1004922Y459659D01*
X1002383D01*
X999843Y462198D01*
X1015078Y459659D02*
X1020157D01*
X1017617D01*
Y474893D01*
X1015078Y472354D01*
X667304Y222617D02*
Y207383D01*
X674922D01*
X677461Y209922D01*
Y220078D01*
X674922Y222617D01*
X667304D01*
X682539Y220078D02*
X685078Y222617D01*
X690157D01*
X692696Y220078D01*
Y217539D01*
X690157Y215000D01*
X687617D01*
X690157D01*
X692696Y212461D01*
Y209922D01*
X690157Y207383D01*
X685078D01*
X682539Y209922D01*
X17304Y557617D02*
Y542383D01*
X24922D01*
X27461Y544922D01*
Y555078D01*
X24922Y557617D01*
X17304D01*
X42696Y542383D02*
X32539D01*
X42696Y552539D01*
Y555078D01*
X40157Y557617D01*
X35078D01*
X32539Y555078D01*
X19843Y387617D02*
Y372383D01*
X27461D01*
X30000Y374922D01*
Y385078D01*
X27461Y387617D01*
X19843D01*
X35078Y372383D02*
X40157D01*
X37618D01*
Y387617D01*
X35078Y385078D01*
X772461Y220078D02*
X769922Y222617D01*
X764843D01*
X762304Y220078D01*
Y209922D01*
X764843Y207383D01*
X769922D01*
X772461Y209922D01*
X777539D02*
X780078Y207383D01*
X785157D01*
X787696Y209922D01*
Y220078D01*
X785157Y222617D01*
X780078D01*
X777539Y220078D01*
Y217539D01*
X780078Y215000D01*
X787696D01*
X912461Y295078D02*
X909922Y297617D01*
X904843D01*
X902304Y295078D01*
Y284922D01*
X904843Y282383D01*
X909922D01*
X912461Y284922D01*
X917539Y297617D02*
X927696D01*
Y295078D01*
X917539Y284922D01*
Y282383D01*
X772461Y295078D02*
X769922Y297617D01*
X764843D01*
X762304Y295078D01*
Y284922D01*
X764843Y282383D01*
X769922D01*
X772461Y284922D01*
X777539Y295078D02*
X780078Y297617D01*
X785157D01*
X787696Y295078D01*
Y292539D01*
X785157Y290000D01*
X787696Y287461D01*
Y284922D01*
X785157Y282383D01*
X780078D01*
X777539Y284922D01*
Y287461D01*
X780078Y290000D01*
X777539Y292539D01*
Y295078D01*
X780078Y290000D02*
X785157D01*
X1007461Y444414D02*
X1004922Y446954D01*
X999843D01*
X997304Y444414D01*
Y434258D01*
X999843Y431718D01*
X1004922D01*
X1007461Y434258D01*
X1022696Y446954D02*
X1012539D01*
Y439336D01*
X1017617Y441875D01*
X1020157D01*
X1022696Y439336D01*
Y434258D01*
X1020157Y431718D01*
X1015078D01*
X1012539Y434258D01*
X27461Y145078D02*
X24922Y147618D01*
X19843D01*
X17304Y145078D01*
Y134922D01*
X19843Y132382D01*
X24922D01*
X27461Y134922D01*
X40157Y132382D02*
Y147618D01*
X32539Y140000D01*
X42696D01*
X137461Y315078D02*
X134922Y317617D01*
X129843D01*
X127304Y315078D01*
Y304922D01*
X129843Y302383D01*
X134922D01*
X137461Y304922D01*
X152696Y302383D02*
X142539D01*
X152696Y312539D01*
Y315078D01*
X150157Y317617D01*
X145078D01*
X142539Y315078D01*
X27461Y195078D02*
X24922Y197617D01*
X19843D01*
X17304Y195078D01*
Y184922D01*
X19843Y182383D01*
X24922D01*
X27461Y184922D01*
X32539Y195078D02*
X35078Y197617D01*
X40157D01*
X42696Y195078D01*
Y192539D01*
X40157Y190000D01*
X37617D01*
X40157D01*
X42696Y187461D01*
Y184922D01*
X40157Y182383D01*
X35078D01*
X32539Y184922D01*
X330000Y560078D02*
X327461Y562617D01*
X322383D01*
X319843Y560078D01*
Y549922D01*
X322383Y547383D01*
X327461D01*
X330000Y549922D01*
X335078Y547383D02*
X340157D01*
X337618D01*
Y562617D01*
X335078Y560078D01*
X751834Y162617D02*
Y147382D01*
X759452D01*
X761991Y149922D01*
Y152461D01*
X759452Y155000D01*
X751834D01*
X759452D01*
X761991Y157539D01*
Y160078D01*
X759452Y162617D01*
X751834D01*
X767069D02*
Y149922D01*
X769608Y147382D01*
X774687D01*
X777226Y149922D01*
Y162617D01*
X782304D02*
X792461D01*
Y160078D01*
X782304Y149922D01*
Y147382D01*
X792461D01*
X797539Y162617D02*
X807696D01*
Y160078D01*
X797539Y149922D01*
Y147382D01*
X807696D01*
X822931Y162617D02*
X812774D01*
Y147382D01*
X822931D01*
X812774Y155000D02*
X817853D01*
X828009Y147382D02*
Y162617D01*
X835627D01*
X838166Y160078D01*
Y155000D01*
X835627Y152461D01*
X828009D01*
X833088D02*
X838166Y147382D01*
M02*
