G04*
G04 #@! TF.GenerationSoftware,Altium Limited,Altium Designer,22.8.2 (66)*
G04*
G04 Layer_Color=8388736*
%FSLAX44Y44*%
%MOMM*%
G71*
G04*
G04 #@! TF.SameCoordinates,AD83E0BB-F914-43FB-B5B6-00057FB2F5A7*
G04*
G04*
G04 #@! TF.FilePolarity,Negative*
G04*
G01*
G75*
%ADD20R,1.4032X1.7232*%
%ADD21R,1.3532X1.6532*%
%ADD22R,2.5732X3.5732*%
%ADD23R,1.3032X1.5832*%
%ADD24R,4.9032X2.2532*%
%ADD25R,0.9652X1.4732*%
%ADD26R,2.8732X2.7432*%
%ADD27R,1.5032X2.1232*%
%ADD28C,3.2032*%
%ADD29R,2.1532X2.1532*%
%ADD30C,2.1532*%
%ADD31R,1.7032X1.7032*%
%ADD32C,1.7032*%
%ADD33R,1.7032X1.7032*%
%ADD34C,0.8032*%
D20*
X962690Y448480D02*
D03*
X980430D02*
D03*
X324530Y577090D02*
D03*
X342270D02*
D03*
D21*
X948810Y419778D02*
D03*
X930810D02*
D03*
D22*
X931762Y375836D02*
D03*
X979862D02*
D03*
X1004050Y320000D02*
D03*
X955950D02*
D03*
X825950D02*
D03*
X874050D02*
D03*
Y245000D02*
D03*
X825950D02*
D03*
X84050Y270000D02*
D03*
X35950D02*
D03*
X239050Y340000D02*
D03*
X190950D02*
D03*
X25950D02*
D03*
X74050D02*
D03*
D23*
X923850Y320000D02*
D03*
X906150D02*
D03*
X148850Y340000D02*
D03*
X131150D02*
D03*
D24*
X705500Y348250D02*
D03*
Y291750D02*
D03*
X55500Y518250D02*
D03*
Y461750D02*
D03*
D25*
X705243Y230000D02*
D03*
X48243Y405000D02*
D03*
X28243Y575000D02*
D03*
D26*
X728753Y230000D02*
D03*
X71753Y405000D02*
D03*
X51753Y575000D02*
D03*
D27*
X766900Y320000D02*
D03*
X793100D02*
D03*
Y245000D02*
D03*
X766900D02*
D03*
X36900Y210000D02*
D03*
X63100D02*
D03*
Y160000D02*
D03*
X36900D02*
D03*
D28*
X30000Y620000D02*
D03*
X1010000Y30000D02*
D03*
Y620000D02*
D03*
X30000Y30000D02*
D03*
D29*
X979746Y556924D02*
D03*
D30*
Y506124D02*
D03*
D31*
X917300Y42000D02*
D03*
X795000Y41900D02*
D03*
X295800Y270000D02*
D03*
D32*
X942700Y42000D02*
D03*
X795000Y118100D02*
D03*
X270400Y270000D02*
D03*
X245000D02*
D03*
X219600D02*
D03*
X194200D02*
D03*
X187300Y576200D02*
D03*
X161900D02*
D03*
X136500D02*
D03*
X212700D02*
D03*
X238100D02*
D03*
X212700Y423800D02*
D03*
X238100D02*
D03*
X187300D02*
D03*
X136500D02*
D03*
X161900D02*
D03*
X761900D02*
D03*
X736500D02*
D03*
X787300D02*
D03*
X838100D02*
D03*
X812700D02*
D03*
X838100Y576200D02*
D03*
X812700D02*
D03*
X736500D02*
D03*
X761900D02*
D03*
X787300D02*
D03*
X638600Y535000D02*
D03*
Y509600D02*
D03*
Y408000D02*
D03*
Y458800D02*
D03*
Y484200D02*
D03*
Y382600D02*
D03*
Y204800D02*
D03*
Y230200D02*
D03*
Y255600D02*
D03*
Y281000D02*
D03*
Y306400D02*
D03*
Y331800D02*
D03*
Y357200D02*
D03*
Y433400D02*
D03*
X410000Y230200D02*
D03*
Y306400D02*
D03*
Y331800D02*
D03*
Y357200D02*
D03*
Y382600D02*
D03*
Y408000D02*
D03*
Y433400D02*
D03*
Y458800D02*
D03*
Y484200D02*
D03*
Y509600D02*
D03*
Y535000D02*
D03*
Y204800D02*
D03*
Y255600D02*
D03*
Y281000D02*
D03*
X925000Y144600D02*
D03*
Y170000D02*
D03*
Y195400D02*
D03*
Y220800D02*
D03*
D33*
X263500Y423800D02*
D03*
Y576200D02*
D03*
X863500D02*
D03*
Y423800D02*
D03*
X410000Y560400D02*
D03*
X638600Y560400D02*
D03*
X925000Y246200D02*
D03*
D34*
X825950Y274320D02*
D03*
X362910Y577090D02*
D03*
X750000Y245000D02*
D03*
X946922Y448480D02*
D03*
X962924Y419778D02*
D03*
X17526Y159766D02*
D03*
X15557Y269963D02*
D03*
X15000Y575000D02*
D03*
M02*
