G04*
G04 #@! TF.GenerationSoftware,Altium Limited,Altium Designer,22.8.2 (66)*
G04*
G04 Layer_Color=16711935*
%FSLAX44Y44*%
%MOMM*%
G71*
G04*
G04 #@! TF.SameCoordinates,59791082-BFED-418F-BB91-07DD3E29337C*
G04*
G04*
G04 #@! TF.FilePolarity,Negative*
G04*
G01*
G75*
%ADD32R,2.1532X2.1532*%
%ADD33C,2.1532*%
%ADD34C,1.7032*%
%ADD35R,1.7032X1.7032*%
%ADD36R,1.7032X1.7032*%
%ADD37C,0.8032*%
D32*
X1283000Y956400D02*
D03*
D33*
Y905600D02*
D03*
D34*
X662800Y86000D02*
D03*
X688200D02*
D03*
X713600D02*
D03*
X739000D02*
D03*
X1290000Y59200D02*
D03*
Y84600D02*
D03*
Y110000D02*
D03*
Y135400D02*
D03*
X437600Y409300D02*
D03*
X463000D02*
D03*
X564600D02*
D03*
X513800D02*
D03*
X488400D02*
D03*
X590000D02*
D03*
X767800D02*
D03*
X742400D02*
D03*
X717000D02*
D03*
X691600D02*
D03*
X666200D02*
D03*
X640800D02*
D03*
X615400D02*
D03*
X539200D02*
D03*
X742400Y180700D02*
D03*
X666200D02*
D03*
X640800D02*
D03*
X615400D02*
D03*
X590000D02*
D03*
X564600D02*
D03*
X539200D02*
D03*
X513800D02*
D03*
X488400D02*
D03*
X463000D02*
D03*
X437600D02*
D03*
X767800D02*
D03*
X717000D02*
D03*
X691600D02*
D03*
X471200Y751900D02*
D03*
Y726500D02*
D03*
Y777300D02*
D03*
Y828100D02*
D03*
Y802700D02*
D03*
X318800Y828100D02*
D03*
Y802700D02*
D03*
Y726500D02*
D03*
Y751900D02*
D03*
Y777300D02*
D03*
X1191200Y711900D02*
D03*
Y686500D02*
D03*
Y737300D02*
D03*
Y788100D02*
D03*
Y762700D02*
D03*
X1038800Y788100D02*
D03*
Y762700D02*
D03*
Y686500D02*
D03*
Y711900D02*
D03*
Y737300D02*
D03*
X260000Y66900D02*
D03*
X67300Y142000D02*
D03*
D35*
X764400Y86000D02*
D03*
X412200Y180700D02*
D03*
X412200Y409300D02*
D03*
X318800Y853500D02*
D03*
X471200D02*
D03*
X1038800Y813500D02*
D03*
X1191200D02*
D03*
X260000Y143100D02*
D03*
X92700Y142000D02*
D03*
D36*
X1290000Y160800D02*
D03*
D37*
X814000Y726000D02*
D03*
X1058950Y209950D02*
D03*
X1009900Y48900D02*
D03*
X721000Y727000D02*
D03*
X72050Y777300D02*
D03*
X74930Y853500D02*
D03*
X64000Y237000D02*
D03*
X189000Y226000D02*
D03*
M02*
