M48
;Layer_Color=9474304
;FILE_FORMAT=4:4
METRIC,LZ
;TYPE=PLATED
T1F00S00C0.3000
T2F00S00C1.0200
T3F00S00C1.3000
%
T01
X00064Y00237
X00189Y00226
X0105895Y0020995
X010099Y000489
X00814Y00726
X00721Y00727
X0007205Y007773
X0007493Y008535
T02
X000673Y00142
X000927
X0026Y001431
Y000669
X004122Y001807
X004376
X00463
X004884
X005138
X005392
X005646
X0059
X006154
X006408
X006662
X006916
X00717
X007424
X007678
X007644Y00086
X00739
X007136
X006882
X006628
X0129Y000846
Y000592
Y0011
Y001354
Y001608
X011912Y006865
Y007119
Y007373
X010388
Y007119
Y006865
X007678Y004093
X007424
X00717
X006916
X006662
X006408
X006154
X0059
X005646
X005392
X005138
X004884
X00463
X004376
X004122
X004712Y007265
Y007519
X003188
Y007265
Y007773
Y008027
Y008281
Y008535
X004712
Y008281
Y008027
Y007773
X010388Y007881
Y008135
Y007627
X011912
Y007881
Y008135
T03
X01283Y009056
Y009564
M30
