G04*
G04 #@! TF.GenerationSoftware,Altium Limited,Altium Designer,22.8.2 (66)*
G04*
G04 Layer_Color=8421504*
%FSLAX44Y44*%
%MOMM*%
G71*
G04*
G04 #@! TF.SameCoordinates,59791082-BFED-418F-BB91-07DD3E29337C*
G04*
G04*
G04 #@! TF.FilePolarity,Positive*
G04*
G01*
G75*
%ADD12R,1.1000X1.3800*%
%ADD13R,1.9200X1.3000*%
%ADD14R,1.2000X1.5200*%
%ADD15R,1.5200X1.2000*%
%ADD16R,1.1500X1.4500*%
%ADD17R,4.7000X2.0500*%
%ADD18R,2.6700X2.5400*%
%ADD19R,0.7620X1.2700*%
%ADD20R,3.3700X2.3700*%
%ADD21R,2.3700X3.3700*%
D12*
X298150Y560000D02*
D03*
X315850D02*
D03*
X1069150Y546000D02*
D03*
X1086850D02*
D03*
D13*
X64000Y333100D02*
D03*
Y306900D02*
D03*
X940000Y75100D02*
D03*
Y48900D02*
D03*
X63000Y477100D02*
D03*
Y450900D02*
D03*
X940000Y175100D02*
D03*
Y148900D02*
D03*
D14*
X162670Y853500D02*
D03*
X144930D02*
D03*
D15*
X721000Y814870D02*
D03*
Y797130D02*
D03*
D16*
X875000Y726000D02*
D03*
X893000D02*
D03*
D17*
X165500Y644250D02*
D03*
Y700750D02*
D03*
X898500Y596750D02*
D03*
Y653250D02*
D03*
D18*
X166000Y576300D02*
D03*
X142047Y777300D02*
D03*
X899247Y492000D02*
D03*
D19*
X189510Y576300D02*
D03*
X165557Y777300D02*
D03*
X922757Y492000D02*
D03*
D20*
X189000Y477050D02*
D03*
Y428950D02*
D03*
Y344050D02*
D03*
Y295950D02*
D03*
X989000Y411050D02*
D03*
Y362950D02*
D03*
X990000Y258050D02*
D03*
Y209950D02*
D03*
D21*
X448300Y560000D02*
D03*
X400200D02*
D03*
X1229050Y545000D02*
D03*
X1180950D02*
D03*
X843950Y813500D02*
D03*
X892050D02*
D03*
M02*
