G04*
G04 #@! TF.GenerationSoftware,Altium Limited,Altium Designer,22.8.2 (66)*
G04*
G04 Layer_Color=65535*
%FSLAX44Y44*%
%MOMM*%
G71*
G04*
G04 #@! TF.SameCoordinates,59791082-BFED-418F-BB91-07DD3E29337C*
G04*
G04*
G04 #@! TF.FilePolarity,Positive*
G04*
G01*
G75*
%ADD10C,0.2000*%
%ADD11C,0.2540*%
D10*
X261300Y898000D02*
G03*
X262300Y898000I500J0D01*
G01*
D02*
G03*
X261300Y898000I-500J0D01*
G01*
X981300Y858000D02*
G03*
X982300Y858000I500J0D01*
G01*
D02*
G03*
X981300Y858000I-500J0D01*
G01*
X320000Y105100D02*
G03*
X200000Y105100I-60000J0D01*
G01*
D02*
G03*
X320000Y105100I60000J0D01*
G01*
X260000Y172100D02*
G03*
X260000Y171100I0J-500D01*
G01*
D02*
G03*
X260000Y172100I0J500D01*
G01*
X106500Y142000D02*
G03*
X105500Y142000I-500J0D01*
G01*
D02*
G03*
X106500Y142000I500J0D01*
G01*
X1242000Y981800D02*
X1324000D01*
X1242000Y880200D02*
Y981800D01*
Y880200D02*
X1324000D01*
Y981800D01*
X1226000Y957000D02*
X1236000D01*
X1231000Y952000D02*
Y962000D01*
X1230000Y900000D02*
Y910000D01*
X307000Y554500D02*
Y565500D01*
X1078000Y540500D02*
Y551500D01*
X57000Y320000D02*
X71000D01*
X933000Y62000D02*
X947000D01*
X56000Y464000D02*
X70000D01*
X933000Y162000D02*
X947000D01*
X153800Y847150D02*
Y859850D01*
X714650Y806000D02*
X727350D01*
X884000Y720500D02*
Y731500D01*
X193500Y663500D02*
Y681500D01*
X126500Y706000D02*
X136000D01*
X126500Y639000D02*
Y706000D01*
Y639000D02*
X136000D01*
X926500Y616000D02*
Y634000D01*
X859500Y658500D02*
X869000D01*
X859500Y591500D02*
Y658500D01*
Y591500D02*
X869000D01*
X182960Y566050D02*
X188653D01*
X182960Y586550D02*
X188653D01*
X159007Y767050D02*
X164700D01*
X159007Y787550D02*
X164700D01*
X916207Y481750D02*
X921900D01*
X916207Y502250D02*
X921900D01*
X648350Y73300D02*
Y98700D01*
Y73300D02*
X778600D01*
X648350Y98700D02*
X768600D01*
X778850Y73300D02*
Y89000D01*
X1277300Y44750D02*
X1302700D01*
Y175000D01*
X1277300Y44750D02*
Y165000D01*
X1287000Y175250D02*
X1302700D01*
X345000Y424100D02*
X835000D01*
X345000Y179100D02*
X345000Y424100D01*
X365000Y164100D02*
X835000Y164100D01*
Y424100D01*
X205800Y444000D02*
Y462000D01*
X172200Y444000D02*
Y462000D01*
X205800Y311000D02*
Y329000D01*
X172200Y311000D02*
Y329000D01*
X415250Y543200D02*
X433250D01*
X415250Y576800D02*
X433250D01*
X1005800Y378000D02*
Y396000D01*
X972200Y378000D02*
Y396000D01*
X1006800Y225000D02*
Y243000D01*
X973200Y225000D02*
Y243000D01*
X1196000Y528200D02*
X1214000D01*
X1196000Y561800D02*
X1214000D01*
X859000Y830300D02*
X877000D01*
X859000Y796700D02*
X877000D01*
X268000Y688400D02*
X522000D01*
X268000D02*
Y891600D01*
X522000D01*
Y688400D02*
Y891600D01*
X988000Y648400D02*
X1242000D01*
X988000D02*
Y851600D01*
X1242000D01*
Y648400D02*
Y851600D01*
X100700Y154000D02*
Y158000D01*
Y126000D02*
Y130000D01*
X59900Y158000D02*
X100700D01*
X59700Y154000D02*
Y158000D01*
Y126000D02*
Y130000D01*
Y126000D02*
X100500D01*
D11*
X32540Y972534D02*
X39204D01*
X35872D01*
Y952540D01*
X32540D01*
X39204D01*
X52533D02*
X59198D01*
X62530Y955872D01*
Y962537D01*
X59198Y965869D01*
X52533D01*
X49201Y962537D01*
Y955872D01*
X52533Y952540D01*
X69195Y972534D02*
X82524D01*
X75859D01*
Y952540D01*
X109182Y972534D02*
Y952540D01*
X119179D01*
X122511Y955872D01*
Y959204D01*
X119179Y962537D01*
X109182D01*
X119179D01*
X122511Y965869D01*
Y969201D01*
X119179Y972534D01*
X109182D01*
X132508Y965869D02*
X139172D01*
X142505Y962537D01*
Y952540D01*
X132508D01*
X129176Y955872D01*
X132508Y959204D01*
X142505D01*
X149169Y952540D02*
X159166D01*
X162498Y955872D01*
X159166Y959204D01*
X152501D01*
X149169Y962537D01*
X152501Y965869D01*
X162498D01*
X179159Y952540D02*
X172495D01*
X169163Y955872D01*
Y962537D01*
X172495Y965869D01*
X179159D01*
X182492Y962537D01*
Y959204D01*
X169163D01*
X202485Y972534D02*
Y952540D01*
X192488D01*
X189156Y955872D01*
Y962537D01*
X192488Y965869D01*
X202485D01*
X229143Y952540D02*
Y972534D01*
X239140D01*
X242472Y969201D01*
Y962537D01*
X239140Y959204D01*
X229143D01*
X259134Y952540D02*
X252469D01*
X249137Y955872D01*
Y962537D01*
X252469Y965869D01*
X259134D01*
X262466Y962537D01*
Y959204D01*
X249137D01*
X272463Y969201D02*
Y965869D01*
X269130D01*
X275795D01*
X272463D01*
Y955872D01*
X275795Y952540D01*
X305785Y972534D02*
X319114D01*
X312450D01*
Y952540D01*
X325779Y965869D02*
Y952540D01*
Y959204D01*
X329111Y962537D01*
X332443Y965869D01*
X335776D01*
X349105D02*
X355769D01*
X359101Y962537D01*
Y952540D01*
X349105D01*
X345772Y955872D01*
X349105Y959204D01*
X359101D01*
X379095Y965869D02*
X369098D01*
X365766Y962537D01*
Y955872D01*
X369098Y952540D01*
X379095D01*
X385760D02*
Y972534D01*
Y959204D02*
X395756Y965869D01*
X385760Y959204D02*
X395756Y952540D01*
X415750D02*
X409085D01*
X405753Y955872D01*
Y962537D01*
X409085Y965869D01*
X415750D01*
X419082Y962537D01*
Y959204D01*
X405753D01*
X425747Y965869D02*
Y952540D01*
Y959204D01*
X429079Y962537D01*
X432411Y965869D01*
X435743D01*
X1318000Y868617D02*
X1312922D01*
X1315461D01*
Y855922D01*
X1312922Y853382D01*
X1310383D01*
X1307843Y855922D01*
X1323078Y853382D02*
X1328157D01*
X1325618D01*
Y868617D01*
X1323078Y866078D01*
X1250304Y665618D02*
Y652922D01*
X1252843Y650383D01*
X1257922D01*
X1260461Y652922D01*
Y665618D01*
X1275696Y650383D02*
X1265539D01*
X1275696Y660539D01*
Y663078D01*
X1273157Y665618D01*
X1268078D01*
X1265539Y663078D01*
X1077461Y530078D02*
X1074922Y532617D01*
X1069843D01*
X1067304Y530078D01*
Y519922D01*
X1069843Y517383D01*
X1074922D01*
X1077461Y519922D01*
X1082539Y532617D02*
X1092696D01*
Y530078D01*
X1082539Y519922D01*
Y517383D01*
X1192304Y502383D02*
Y517617D01*
X1199922D01*
X1202461Y515078D01*
Y510000D01*
X1199922Y507461D01*
X1192304D01*
X1197383D02*
X1202461Y502383D01*
X1217696Y517617D02*
X1212617Y515078D01*
X1207539Y510000D01*
Y504922D01*
X1210078Y502383D01*
X1215157D01*
X1217696Y504922D01*
Y507461D01*
X1215157Y510000D01*
X1207539D01*
X817461Y150618D02*
X812383D01*
X814922D01*
Y137922D01*
X812383Y135382D01*
X809843D01*
X807304Y137922D01*
X832696Y135382D02*
X822539D01*
X832696Y145539D01*
Y148078D01*
X830157Y150618D01*
X825078D01*
X822539Y148078D01*
X815461Y70617D02*
X810383D01*
X812922D01*
Y57922D01*
X810383Y55382D01*
X807843D01*
X805304Y57922D01*
X820539Y68078D02*
X823078Y70617D01*
X828157D01*
X830696Y68078D01*
Y65539D01*
X828157Y63000D01*
X825618D01*
X828157D01*
X830696Y60461D01*
Y57922D01*
X828157Y55382D01*
X823078D01*
X820539Y57922D01*
X1015304Y227383D02*
Y242617D01*
X1022922D01*
X1025461Y240078D01*
Y235000D01*
X1022922Y232461D01*
X1015304D01*
X1020383D02*
X1025461Y227383D01*
X1040696Y242617D02*
X1030539D01*
Y235000D01*
X1035618Y237539D01*
X1038157D01*
X1040696Y235000D01*
Y229922D01*
X1038157Y227383D01*
X1033078D01*
X1030539Y229922D01*
X1019304Y338382D02*
Y353618D01*
X1026922D01*
X1029461Y351078D01*
Y346000D01*
X1026922Y343461D01*
X1019304D01*
X1024382D02*
X1029461Y338382D01*
X1042157D02*
Y353618D01*
X1034539Y346000D01*
X1044696D01*
X216834Y194618D02*
Y179382D01*
X224452D01*
X226991Y181922D01*
Y184461D01*
X224452Y187000D01*
X216834D01*
X224452D01*
X226991Y189539D01*
Y192078D01*
X224452Y194618D01*
X216834D01*
X232069D02*
Y181922D01*
X234608Y179382D01*
X239687D01*
X242226Y181922D01*
Y194618D01*
X247304D02*
X257461D01*
Y192078D01*
X247304Y181922D01*
Y179382D01*
X257461D01*
X262539Y194618D02*
X272696D01*
Y192078D01*
X262539Y181922D01*
Y179382D01*
X272696D01*
X287931Y194618D02*
X277774D01*
Y179382D01*
X287931D01*
X277774Y187000D02*
X282853D01*
X293009Y179382D02*
Y194618D01*
X300627D01*
X303166Y192078D01*
Y187000D01*
X300627Y184461D01*
X293009D01*
X298088D02*
X303166Y179382D01*
X909461Y155078D02*
X906922Y157618D01*
X901843D01*
X899304Y155078D01*
Y144922D01*
X901843Y142382D01*
X906922D01*
X909461Y144922D01*
X914539Y155078D02*
X917078Y157618D01*
X922157D01*
X924696Y155078D01*
Y152539D01*
X922157Y150000D01*
X924696Y147461D01*
Y144922D01*
X922157Y142382D01*
X917078D01*
X914539Y144922D01*
Y147461D01*
X917078Y150000D01*
X914539Y152539D01*
Y155078D01*
X917078Y150000D02*
X922157D01*
X909461Y55078D02*
X906922Y57618D01*
X901843D01*
X899304Y55078D01*
Y44922D01*
X901843Y42382D01*
X906922D01*
X909461Y44922D01*
X914539D02*
X917078Y42382D01*
X922157D01*
X924696Y44922D01*
Y55078D01*
X922157Y57618D01*
X917078D01*
X914539Y55078D01*
Y52539D01*
X917078Y50000D01*
X924696D01*
X1286527Y201041D02*
X1281448D01*
X1283987D01*
Y188345D01*
X1281448Y185806D01*
X1278909D01*
X1276370Y188345D01*
X1299223Y185806D02*
Y201041D01*
X1291605Y193424D01*
X1301762D01*
X851304Y772383D02*
Y787617D01*
X858922D01*
X861461Y785078D01*
Y780000D01*
X858922Y777461D01*
X851304D01*
X856383D02*
X861461Y772383D01*
X866539Y787617D02*
X876696D01*
Y785078D01*
X866539Y774922D01*
Y772383D01*
X876461Y708078D02*
X873922Y710618D01*
X868843D01*
X866304Y708078D01*
Y697922D01*
X868843Y695383D01*
X873922D01*
X876461Y697922D01*
X891696Y710618D02*
X886618Y708078D01*
X881539Y703000D01*
Y697922D01*
X884078Y695383D01*
X889157D01*
X891696Y697922D01*
Y700461D01*
X889157Y703000D01*
X881539D01*
X893304Y469618D02*
Y454382D01*
X900922D01*
X903461Y456922D01*
Y467078D01*
X900922Y469618D01*
X893304D01*
X908539Y467078D02*
X911078Y469618D01*
X916157D01*
X918696Y467078D01*
Y464539D01*
X916157Y462000D01*
X913618D01*
X916157D01*
X918696Y459461D01*
Y456922D01*
X916157Y454382D01*
X911078D01*
X908539Y456922D01*
X862304Y577617D02*
Y562383D01*
X872461D01*
X887696D02*
X877539D01*
X887696Y572539D01*
Y575078D01*
X885157Y577617D01*
X880078D01*
X877539Y575078D01*
X302461Y585078D02*
X299922Y587617D01*
X294843D01*
X292304Y585078D01*
Y574922D01*
X294843Y572382D01*
X299922D01*
X302461Y574922D01*
X317696Y572382D02*
X307539D01*
X317696Y582539D01*
Y585078D01*
X315157Y587617D01*
X310078D01*
X307539Y585078D01*
X58186Y184023D02*
Y168788D01*
X68343D01*
X83578Y184023D02*
X73421D01*
Y168788D01*
X83578D01*
X73421Y176406D02*
X78499D01*
X88656Y184023D02*
Y168788D01*
X96274D01*
X98813Y171327D01*
Y181484D01*
X96274Y184023D01*
X88656D01*
X692461Y812078D02*
X689922Y814617D01*
X684843D01*
X682304Y812078D01*
Y801922D01*
X684843Y799382D01*
X689922D01*
X692461Y801922D01*
X707696Y814617D02*
X697539D01*
Y807000D01*
X702617Y809539D01*
X705157D01*
X707696Y807000D01*
Y801922D01*
X705157Y799382D01*
X700078D01*
X697539Y801922D01*
X531843Y704617D02*
Y691922D01*
X534383Y689382D01*
X539461D01*
X542000Y691922D01*
Y704617D01*
X547078Y689382D02*
X552157D01*
X549618D01*
Y704617D01*
X547078Y702078D01*
X129304Y758617D02*
Y743382D01*
X136922D01*
X139461Y745922D01*
Y756078D01*
X136922Y758617D01*
X129304D01*
X154696Y743382D02*
X144539D01*
X154696Y753539D01*
Y756078D01*
X152157Y758617D01*
X147078D01*
X144539Y756078D01*
X154000Y839078D02*
X151461Y841618D01*
X146383D01*
X143843Y839078D01*
Y828922D01*
X146383Y826383D01*
X151461D01*
X154000Y828922D01*
X159078Y826383D02*
X164157D01*
X161618D01*
Y841618D01*
X159078Y839078D01*
X133843Y628618D02*
Y613382D01*
X144000D01*
X149078D02*
X154157D01*
X151618D01*
Y628618D01*
X149078Y626078D01*
X90461Y453078D02*
X87922Y455617D01*
X82843D01*
X80304Y453078D01*
Y442922D01*
X82843Y440382D01*
X87922D01*
X90461Y442922D01*
X95539Y453078D02*
X98078Y455617D01*
X103157D01*
X105696Y453078D01*
Y450539D01*
X103157Y448000D01*
X100618D01*
X103157D01*
X105696Y445461D01*
Y442922D01*
X103157Y440382D01*
X98078D01*
X95539Y442922D01*
X142843Y420382D02*
Y435617D01*
X150461D01*
X153000Y433078D01*
Y428000D01*
X150461Y425461D01*
X142843D01*
X147922D02*
X153000Y420382D01*
X158078D02*
X163157D01*
X160618D01*
Y435617D01*
X158078Y433078D01*
X157843Y558618D02*
Y543382D01*
X165461D01*
X168000Y545922D01*
Y556078D01*
X165461Y558618D01*
X157843D01*
X173078Y543382D02*
X178157D01*
X175618D01*
Y558618D01*
X173078Y556078D01*
X412304Y587382D02*
Y602617D01*
X419922D01*
X422461Y600078D01*
Y595000D01*
X419922Y592461D01*
X412304D01*
X417382D02*
X422461Y587382D01*
X427539Y600078D02*
X430078Y602617D01*
X435157D01*
X437696Y600078D01*
Y597539D01*
X435157Y595000D01*
X432617D01*
X435157D01*
X437696Y592461D01*
Y589922D01*
X435157Y587382D01*
X430078D01*
X427539Y589922D01*
X92461Y309078D02*
X89922Y311618D01*
X84843D01*
X82304Y309078D01*
Y298922D01*
X84843Y296383D01*
X89922D01*
X92461Y298922D01*
X105157Y296383D02*
Y311618D01*
X97539Y304000D01*
X107696D01*
X215304Y290382D02*
Y305618D01*
X222922D01*
X225461Y303078D01*
Y298000D01*
X222922Y295461D01*
X215304D01*
X220382D02*
X225461Y290382D01*
X240696D02*
X230539D01*
X240696Y300539D01*
Y303078D01*
X238157Y305618D01*
X233078D01*
X230539Y303078D01*
M02*
