G04*
G04 #@! TF.GenerationSoftware,Altium Limited,Altium Designer,22.8.2 (66)*
G04*
G04 Layer_Physical_Order=2*
G04 Layer_Color=16711680*
%FSLAX44Y44*%
%MOMM*%
G71*
G04*
G04 #@! TF.SameCoordinates,59791082-BFED-418F-BB91-07DD3E29337C*
G04*
G04*
G04 #@! TF.FilePolarity,Positive*
G04*
G01*
G75*
%ADD39R,1.9500X1.9500*%
%ADD40C,1.9500*%
%ADD41C,1.5000*%
%ADD42R,1.5000X1.5000*%
%ADD43R,1.5000X1.5000*%
%ADD44C,0.6000*%
G36*
X1330000Y20000D02*
X20000Y20000D01*
Y980000D01*
X1330000D01*
Y20000D01*
D02*
G37*
%LPC*%
G36*
X1295290Y968690D02*
X1270710D01*
Y944110D01*
X1295290D01*
Y968690D01*
D02*
G37*
G36*
X1284618Y917890D02*
X1284270D01*
Y906870D01*
X1295290D01*
Y907218D01*
X1294453Y910344D01*
X1292834Y913146D01*
X1290546Y915434D01*
X1287744Y917052D01*
X1284618Y917890D01*
D02*
G37*
G36*
X1281730D02*
X1281382D01*
X1278256Y917052D01*
X1275454Y915434D01*
X1273166Y913146D01*
X1271547Y910344D01*
X1270710Y907218D01*
Y906870D01*
X1281730D01*
Y917890D01*
D02*
G37*
G36*
X1295290Y904330D02*
X1284270D01*
Y893310D01*
X1284618D01*
X1287744Y894147D01*
X1290546Y895766D01*
X1292834Y898054D01*
X1294453Y900856D01*
X1295290Y903982D01*
Y904330D01*
D02*
G37*
G36*
X1281730D02*
X1270710D01*
Y903982D01*
X1271547Y900856D01*
X1273166Y898054D01*
X1275454Y895766D01*
X1278256Y894147D01*
X1281382Y893310D01*
X1281730D01*
Y904330D01*
D02*
G37*
G36*
X76200Y858970D02*
Y854770D01*
X80400D01*
X79626Y856638D01*
X78068Y858197D01*
X76200Y858970D01*
D02*
G37*
G36*
X73660D02*
X71792Y858197D01*
X70233Y856638D01*
X69460Y854770D01*
X73660D01*
Y858970D01*
D02*
G37*
G36*
X80400Y852230D02*
X76200D01*
Y848030D01*
X78068Y848803D01*
X79626Y850362D01*
X80400Y852230D01*
D02*
G37*
G36*
X73660D02*
X69460D01*
X70233Y850362D01*
X71792Y848803D01*
X73660Y848030D01*
Y852230D01*
D02*
G37*
G36*
X481240Y863540D02*
X461160D01*
Y843460D01*
X481240D01*
Y863540D01*
D02*
G37*
G36*
X328840D02*
X308760D01*
Y843460D01*
X328840D01*
Y863540D01*
D02*
G37*
G36*
X320122Y838140D02*
X320070D01*
Y829370D01*
X328840D01*
Y829422D01*
X328156Y831975D01*
X326834Y834265D01*
X324965Y836134D01*
X322675Y837456D01*
X320122Y838140D01*
D02*
G37*
G36*
X317530D02*
X317478D01*
X314925Y837456D01*
X312635Y836134D01*
X310766Y834265D01*
X309444Y831975D01*
X308760Y829422D01*
Y829370D01*
X317530D01*
Y838140D01*
D02*
G37*
G36*
X472522D02*
X469878D01*
X467325Y837456D01*
X465035Y836134D01*
X463166Y834265D01*
X461844Y831975D01*
X461160Y829422D01*
Y826778D01*
X461844Y824225D01*
X463166Y821935D01*
X465035Y820066D01*
X467325Y818744D01*
X469878Y818060D01*
X472522D01*
X475075Y818744D01*
X477365Y820066D01*
X479234Y821935D01*
X480556Y824225D01*
X481240Y826778D01*
Y829422D01*
X480556Y831975D01*
X479234Y834265D01*
X477365Y836134D01*
X475075Y837456D01*
X472522Y838140D01*
D02*
G37*
G36*
X328840Y826830D02*
X320070D01*
Y818060D01*
X320122D01*
X322675Y818744D01*
X324965Y820066D01*
X326834Y821935D01*
X328156Y824225D01*
X328840Y826778D01*
Y826830D01*
D02*
G37*
G36*
X317530D02*
X308760D01*
Y826778D01*
X309444Y824225D01*
X310766Y821935D01*
X312635Y820066D01*
X314925Y818744D01*
X317478Y818060D01*
X317530D01*
Y826830D01*
D02*
G37*
G36*
X320122Y812740D02*
X320070D01*
Y803970D01*
X328840D01*
Y804022D01*
X328156Y806575D01*
X326834Y808865D01*
X324965Y810734D01*
X322675Y812056D01*
X320122Y812740D01*
D02*
G37*
G36*
X317530D02*
X317478D01*
X314925Y812056D01*
X312635Y810734D01*
X310766Y808865D01*
X309444Y806575D01*
X308760Y804022D01*
Y803970D01*
X317530D01*
Y812740D01*
D02*
G37*
G36*
X1201240Y823540D02*
X1181160D01*
Y803460D01*
X1201240D01*
Y823540D01*
D02*
G37*
G36*
X1048840D02*
X1028760D01*
Y803460D01*
X1048840D01*
Y823540D01*
D02*
G37*
G36*
X472522Y812740D02*
X469878D01*
X467325Y812056D01*
X465035Y810734D01*
X463166Y808865D01*
X461844Y806575D01*
X461160Y804022D01*
Y801378D01*
X461844Y798825D01*
X463166Y796535D01*
X465035Y794666D01*
X467325Y793344D01*
X469878Y792660D01*
X472522D01*
X475075Y793344D01*
X477365Y794666D01*
X479234Y796535D01*
X480556Y798825D01*
X481240Y801378D01*
Y804022D01*
X480556Y806575D01*
X479234Y808865D01*
X477365Y810734D01*
X475075Y812056D01*
X472522Y812740D01*
D02*
G37*
G36*
X328840Y801430D02*
X320070D01*
Y792660D01*
X320122D01*
X322675Y793344D01*
X324965Y794666D01*
X326834Y796535D01*
X328156Y798825D01*
X328840Y801378D01*
Y801430D01*
D02*
G37*
G36*
X317530D02*
X308760D01*
Y801378D01*
X309444Y798825D01*
X310766Y796535D01*
X312635Y794666D01*
X314925Y793344D01*
X317478Y792660D01*
X317530D01*
Y801430D01*
D02*
G37*
G36*
X1040122Y798140D02*
X1040070D01*
Y789370D01*
X1048840D01*
Y789422D01*
X1048156Y791975D01*
X1046834Y794265D01*
X1044965Y796134D01*
X1042675Y797456D01*
X1040122Y798140D01*
D02*
G37*
G36*
X1037530D02*
X1037478D01*
X1034925Y797456D01*
X1032635Y796134D01*
X1030766Y794265D01*
X1029444Y791975D01*
X1028760Y789422D01*
Y789370D01*
X1037530D01*
Y798140D01*
D02*
G37*
G36*
X73320Y782770D02*
Y778570D01*
X77520D01*
X76747Y780438D01*
X75188Y781997D01*
X73320Y782770D01*
D02*
G37*
G36*
X70780D02*
X68912Y781997D01*
X67353Y780438D01*
X66579Y778570D01*
X70780D01*
Y782770D01*
D02*
G37*
G36*
X1192522Y798140D02*
X1189878D01*
X1187325Y797456D01*
X1185035Y796134D01*
X1183166Y794265D01*
X1181844Y791975D01*
X1181160Y789422D01*
Y786778D01*
X1181844Y784225D01*
X1183166Y781935D01*
X1185035Y780066D01*
X1187325Y778744D01*
X1189878Y778060D01*
X1192522D01*
X1195075Y778744D01*
X1197365Y780066D01*
X1199234Y781935D01*
X1200556Y784225D01*
X1201240Y786778D01*
Y789422D01*
X1200556Y791975D01*
X1199234Y794265D01*
X1197365Y796134D01*
X1195075Y797456D01*
X1192522Y798140D01*
D02*
G37*
G36*
X1048840Y786830D02*
X1040070D01*
Y778060D01*
X1040122D01*
X1042675Y778744D01*
X1044965Y780066D01*
X1046834Y781935D01*
X1048156Y784225D01*
X1048840Y786778D01*
Y786830D01*
D02*
G37*
G36*
X1037530D02*
X1028760D01*
Y786778D01*
X1029444Y784225D01*
X1030766Y781935D01*
X1032635Y780066D01*
X1034925Y778744D01*
X1037478Y778060D01*
X1037530D01*
Y786830D01*
D02*
G37*
G36*
X77520Y776030D02*
X73320D01*
Y771830D01*
X75188Y772603D01*
X76747Y774162D01*
X77520Y776030D01*
D02*
G37*
G36*
X70780D02*
X66579D01*
X67353Y774162D01*
X68912Y772603D01*
X70780Y771830D01*
Y776030D01*
D02*
G37*
G36*
X472522Y787340D02*
X469878D01*
X467325Y786656D01*
X465035Y785334D01*
X463166Y783465D01*
X461844Y781175D01*
X461160Y778622D01*
Y775978D01*
X461844Y773425D01*
X463166Y771135D01*
X465035Y769266D01*
X467325Y767944D01*
X469878Y767260D01*
X472522D01*
X475075Y767944D01*
X477365Y769266D01*
X479234Y771135D01*
X480556Y773425D01*
X481240Y775978D01*
Y778622D01*
X480556Y781175D01*
X479234Y783465D01*
X477365Y785334D01*
X475075Y786656D01*
X472522Y787340D01*
D02*
G37*
G36*
X320122D02*
X317478D01*
X314925Y786656D01*
X312635Y785334D01*
X310766Y783465D01*
X309444Y781175D01*
X308760Y778622D01*
Y775978D01*
X309444Y773425D01*
X310766Y771135D01*
X312635Y769266D01*
X314925Y767944D01*
X317478Y767260D01*
X320122D01*
X322675Y767944D01*
X324965Y769266D01*
X326834Y771135D01*
X328156Y773425D01*
X328840Y775978D01*
Y778622D01*
X328156Y781175D01*
X326834Y783465D01*
X324965Y785334D01*
X322675Y786656D01*
X320122Y787340D01*
D02*
G37*
G36*
X1040122Y772740D02*
X1040070D01*
Y763970D01*
X1048840D01*
Y764022D01*
X1048156Y766575D01*
X1046834Y768865D01*
X1044965Y770734D01*
X1042675Y772056D01*
X1040122Y772740D01*
D02*
G37*
G36*
X1037530D02*
X1037478D01*
X1034925Y772056D01*
X1032635Y770734D01*
X1030766Y768865D01*
X1029444Y766575D01*
X1028760Y764022D01*
Y763970D01*
X1037530D01*
Y772740D01*
D02*
G37*
G36*
X1192522D02*
X1189878D01*
X1187325Y772056D01*
X1185035Y770734D01*
X1183166Y768865D01*
X1181844Y766575D01*
X1181160Y764022D01*
Y761378D01*
X1181844Y758825D01*
X1183166Y756535D01*
X1185035Y754666D01*
X1187325Y753344D01*
X1189878Y752660D01*
X1192522D01*
X1195075Y753344D01*
X1197365Y754666D01*
X1199234Y756535D01*
X1200556Y758825D01*
X1201240Y761378D01*
Y764022D01*
X1200556Y766575D01*
X1199234Y768865D01*
X1197365Y770734D01*
X1195075Y772056D01*
X1192522Y772740D01*
D02*
G37*
G36*
X1048840Y761430D02*
X1040070D01*
Y752660D01*
X1040122D01*
X1042675Y753344D01*
X1044965Y754666D01*
X1046834Y756535D01*
X1048156Y758825D01*
X1048840Y761378D01*
Y761430D01*
D02*
G37*
G36*
X1037530D02*
X1028760D01*
Y761378D01*
X1029444Y758825D01*
X1030766Y756535D01*
X1032635Y754666D01*
X1034925Y753344D01*
X1037478Y752660D01*
X1037530D01*
Y761430D01*
D02*
G37*
G36*
X472522Y761940D02*
X469878D01*
X467325Y761256D01*
X465035Y759934D01*
X463166Y758065D01*
X461844Y755775D01*
X461160Y753222D01*
Y750578D01*
X461844Y748025D01*
X463166Y745735D01*
X465035Y743866D01*
X467325Y742544D01*
X469878Y741860D01*
X472522D01*
X475075Y742544D01*
X477365Y743866D01*
X479234Y745735D01*
X480556Y748025D01*
X481240Y750578D01*
Y753222D01*
X480556Y755775D01*
X479234Y758065D01*
X477365Y759934D01*
X475075Y761256D01*
X472522Y761940D01*
D02*
G37*
G36*
X320122D02*
X317478D01*
X314925Y761256D01*
X312635Y759934D01*
X310766Y758065D01*
X309444Y755775D01*
X308760Y753222D01*
Y750578D01*
X309444Y748025D01*
X310766Y745735D01*
X312635Y743866D01*
X314925Y742544D01*
X317478Y741860D01*
X320122D01*
X322675Y742544D01*
X324965Y743866D01*
X326834Y745735D01*
X328156Y748025D01*
X328840Y750578D01*
Y753222D01*
X328156Y755775D01*
X326834Y758065D01*
X324965Y759934D01*
X322675Y761256D01*
X320122Y761940D01*
D02*
G37*
G36*
X722270Y732470D02*
Y728270D01*
X726470D01*
X725697Y730138D01*
X724138Y731697D01*
X722270Y732470D01*
D02*
G37*
G36*
X719730D02*
X717862Y731697D01*
X716303Y730138D01*
X715530Y728270D01*
X719730D01*
Y732470D01*
D02*
G37*
G36*
X472522Y736540D02*
X472470D01*
Y727770D01*
X481240D01*
Y727822D01*
X480556Y730375D01*
X479234Y732665D01*
X477365Y734534D01*
X475075Y735856D01*
X472522Y736540D01*
D02*
G37*
G36*
X469930D02*
X469878D01*
X467325Y735856D01*
X465035Y734534D01*
X463166Y732665D01*
X461844Y730375D01*
X461160Y727822D01*
Y727770D01*
X469930D01*
Y736540D01*
D02*
G37*
G36*
X320122D02*
X320070D01*
Y727770D01*
X328840D01*
Y727822D01*
X328156Y730375D01*
X326834Y732665D01*
X324965Y734534D01*
X322675Y735856D01*
X320122Y736540D01*
D02*
G37*
G36*
X317530D02*
X317478D01*
X314925Y735856D01*
X312635Y734534D01*
X310766Y732665D01*
X309444Y730375D01*
X308760Y727822D01*
Y727770D01*
X317530D01*
Y736540D01*
D02*
G37*
G36*
X815270Y731470D02*
Y727270D01*
X819470D01*
X818697Y729138D01*
X817138Y730697D01*
X815270Y731470D01*
D02*
G37*
G36*
X812730D02*
X810862Y730697D01*
X809303Y729138D01*
X808530Y727270D01*
X812730D01*
Y731470D01*
D02*
G37*
G36*
X1192522Y747340D02*
X1189878D01*
X1187325Y746656D01*
X1185035Y745334D01*
X1183166Y743465D01*
X1181844Y741175D01*
X1181160Y738622D01*
Y735978D01*
X1181844Y733425D01*
X1183166Y731135D01*
X1185035Y729266D01*
X1187325Y727944D01*
X1189878Y727260D01*
X1192522D01*
X1195075Y727944D01*
X1197365Y729266D01*
X1199234Y731135D01*
X1200556Y733425D01*
X1201240Y735978D01*
Y738622D01*
X1200556Y741175D01*
X1199234Y743465D01*
X1197365Y745334D01*
X1195075Y746656D01*
X1192522Y747340D01*
D02*
G37*
G36*
X1040122D02*
X1037478D01*
X1034925Y746656D01*
X1032635Y745334D01*
X1030766Y743465D01*
X1029444Y741175D01*
X1028760Y738622D01*
Y735978D01*
X1029444Y733425D01*
X1030766Y731135D01*
X1032635Y729266D01*
X1034925Y727944D01*
X1037478Y727260D01*
X1040122D01*
X1042675Y727944D01*
X1044965Y729266D01*
X1046834Y731135D01*
X1048156Y733425D01*
X1048840Y735978D01*
Y738622D01*
X1048156Y741175D01*
X1046834Y743465D01*
X1044965Y745334D01*
X1042675Y746656D01*
X1040122Y747340D01*
D02*
G37*
G36*
X726470Y725730D02*
X722270D01*
Y721530D01*
X724138Y722303D01*
X725697Y723862D01*
X726470Y725730D01*
D02*
G37*
G36*
X719730D02*
X715530D01*
X716303Y723862D01*
X717862Y722303D01*
X719730Y721530D01*
Y725730D01*
D02*
G37*
G36*
X819470Y724730D02*
X815270D01*
Y720530D01*
X817138Y721303D01*
X818697Y722862D01*
X819470Y724730D01*
D02*
G37*
G36*
X812730D02*
X808530D01*
X809303Y722862D01*
X810862Y721303D01*
X812730Y720530D01*
Y724730D01*
D02*
G37*
G36*
X481240Y725230D02*
X472470D01*
Y716460D01*
X472522D01*
X475075Y717144D01*
X477365Y718466D01*
X479234Y720335D01*
X480556Y722625D01*
X481240Y725178D01*
Y725230D01*
D02*
G37*
G36*
X469930D02*
X461160D01*
Y725178D01*
X461844Y722625D01*
X463166Y720335D01*
X465035Y718466D01*
X467325Y717144D01*
X469878Y716460D01*
X469930D01*
Y725230D01*
D02*
G37*
G36*
X328840D02*
X320070D01*
Y716460D01*
X320122D01*
X322675Y717144D01*
X324965Y718466D01*
X326834Y720335D01*
X328156Y722625D01*
X328840Y725178D01*
Y725230D01*
D02*
G37*
G36*
X317530D02*
X308760D01*
Y725178D01*
X309444Y722625D01*
X310766Y720335D01*
X312635Y718466D01*
X314925Y717144D01*
X317478Y716460D01*
X317530D01*
Y725230D01*
D02*
G37*
G36*
X1192522Y721940D02*
X1189878D01*
X1187325Y721256D01*
X1185035Y719934D01*
X1183166Y718065D01*
X1181844Y715775D01*
X1181160Y713222D01*
Y710578D01*
X1181844Y708025D01*
X1183166Y705735D01*
X1185035Y703866D01*
X1187325Y702544D01*
X1189878Y701860D01*
X1192522D01*
X1195075Y702544D01*
X1197365Y703866D01*
X1199234Y705735D01*
X1200556Y708025D01*
X1201240Y710578D01*
Y713222D01*
X1200556Y715775D01*
X1199234Y718065D01*
X1197365Y719934D01*
X1195075Y721256D01*
X1192522Y721940D01*
D02*
G37*
G36*
X1040122D02*
X1037478D01*
X1034925Y721256D01*
X1032635Y719934D01*
X1030766Y718065D01*
X1029444Y715775D01*
X1028760Y713222D01*
Y710578D01*
X1029444Y708025D01*
X1030766Y705735D01*
X1032635Y703866D01*
X1034925Y702544D01*
X1037478Y701860D01*
X1040122D01*
X1042675Y702544D01*
X1044965Y703866D01*
X1046834Y705735D01*
X1048156Y708025D01*
X1048840Y710578D01*
Y713222D01*
X1048156Y715775D01*
X1046834Y718065D01*
X1044965Y719934D01*
X1042675Y721256D01*
X1040122Y721940D01*
D02*
G37*
G36*
X1192522Y696540D02*
X1192470D01*
Y687770D01*
X1201240D01*
Y687822D01*
X1200556Y690375D01*
X1199234Y692665D01*
X1197365Y694534D01*
X1195075Y695856D01*
X1192522Y696540D01*
D02*
G37*
G36*
X1189930D02*
X1189878D01*
X1187325Y695856D01*
X1185035Y694534D01*
X1183166Y692665D01*
X1181844Y690375D01*
X1181160Y687822D01*
Y687770D01*
X1189930D01*
Y696540D01*
D02*
G37*
G36*
X1040122D02*
X1040070D01*
Y687770D01*
X1048840D01*
Y687822D01*
X1048156Y690375D01*
X1046834Y692665D01*
X1044965Y694534D01*
X1042675Y695856D01*
X1040122Y696540D01*
D02*
G37*
G36*
X1037530D02*
X1037478D01*
X1034925Y695856D01*
X1032635Y694534D01*
X1030766Y692665D01*
X1029444Y690375D01*
X1028760Y687822D01*
Y687770D01*
X1037530D01*
Y696540D01*
D02*
G37*
G36*
X1201240Y685230D02*
X1192470D01*
Y676460D01*
X1192522D01*
X1195075Y677144D01*
X1197365Y678466D01*
X1199234Y680335D01*
X1200556Y682625D01*
X1201240Y685178D01*
Y685230D01*
D02*
G37*
G36*
X1189930D02*
X1181160D01*
Y685178D01*
X1181844Y682625D01*
X1183166Y680335D01*
X1185035Y678466D01*
X1187325Y677144D01*
X1189878Y676460D01*
X1189930D01*
Y685230D01*
D02*
G37*
G36*
X1048840D02*
X1040070D01*
Y676460D01*
X1040122D01*
X1042675Y677144D01*
X1044965Y678466D01*
X1046834Y680335D01*
X1048156Y682625D01*
X1048840Y685178D01*
Y685230D01*
D02*
G37*
G36*
X1037530D02*
X1028760D01*
Y685178D01*
X1029444Y682625D01*
X1030766Y680335D01*
X1032635Y678466D01*
X1034925Y677144D01*
X1037478Y676460D01*
X1037530D01*
Y685230D01*
D02*
G37*
G36*
X438922Y419340D02*
X438870D01*
Y410570D01*
X447640D01*
Y410622D01*
X446956Y413175D01*
X445634Y415465D01*
X443765Y417334D01*
X441475Y418656D01*
X438922Y419340D01*
D02*
G37*
G36*
X436330D02*
X436278D01*
X433725Y418656D01*
X431435Y417334D01*
X429566Y415465D01*
X428244Y413175D01*
X427560Y410622D01*
Y410570D01*
X436330D01*
Y419340D01*
D02*
G37*
G36*
X769122D02*
X766478D01*
X763925Y418656D01*
X761635Y417334D01*
X759766Y415465D01*
X758444Y413175D01*
X757760Y410622D01*
Y407978D01*
X758444Y405425D01*
X759766Y403135D01*
X761635Y401266D01*
X763925Y399944D01*
X766478Y399260D01*
X769122D01*
X771675Y399944D01*
X773965Y401266D01*
X775834Y403135D01*
X777156Y405425D01*
X777840Y407978D01*
Y410622D01*
X777156Y413175D01*
X775834Y415465D01*
X773965Y417334D01*
X771675Y418656D01*
X769122Y419340D01*
D02*
G37*
G36*
X743722D02*
X741078D01*
X738525Y418656D01*
X736235Y417334D01*
X734366Y415465D01*
X733044Y413175D01*
X732360Y410622D01*
Y407978D01*
X733044Y405425D01*
X734366Y403135D01*
X736235Y401266D01*
X738525Y399944D01*
X741078Y399260D01*
X743722D01*
X746275Y399944D01*
X748565Y401266D01*
X750434Y403135D01*
X751756Y405425D01*
X752440Y407978D01*
Y410622D01*
X751756Y413175D01*
X750434Y415465D01*
X748565Y417334D01*
X746275Y418656D01*
X743722Y419340D01*
D02*
G37*
G36*
X718322D02*
X715678D01*
X713125Y418656D01*
X710835Y417334D01*
X708966Y415465D01*
X707644Y413175D01*
X706960Y410622D01*
Y407978D01*
X707644Y405425D01*
X708966Y403135D01*
X710835Y401266D01*
X713125Y399944D01*
X715678Y399260D01*
X718322D01*
X720875Y399944D01*
X723165Y401266D01*
X725034Y403135D01*
X726356Y405425D01*
X727040Y407978D01*
Y410622D01*
X726356Y413175D01*
X725034Y415465D01*
X723165Y417334D01*
X720875Y418656D01*
X718322Y419340D01*
D02*
G37*
G36*
X692922D02*
X690278D01*
X687725Y418656D01*
X685435Y417334D01*
X683566Y415465D01*
X682244Y413175D01*
X681560Y410622D01*
Y407978D01*
X682244Y405425D01*
X683566Y403135D01*
X685435Y401266D01*
X687725Y399944D01*
X690278Y399260D01*
X692922D01*
X695475Y399944D01*
X697765Y401266D01*
X699634Y403135D01*
X700956Y405425D01*
X701640Y407978D01*
Y410622D01*
X700956Y413175D01*
X699634Y415465D01*
X697765Y417334D01*
X695475Y418656D01*
X692922Y419340D01*
D02*
G37*
G36*
X667522D02*
X664878D01*
X662325Y418656D01*
X660035Y417334D01*
X658166Y415465D01*
X656844Y413175D01*
X656160Y410622D01*
Y407978D01*
X656844Y405425D01*
X658166Y403135D01*
X660035Y401266D01*
X662325Y399944D01*
X664878Y399260D01*
X667522D01*
X670075Y399944D01*
X672365Y401266D01*
X674234Y403135D01*
X675556Y405425D01*
X676240Y407978D01*
Y410622D01*
X675556Y413175D01*
X674234Y415465D01*
X672365Y417334D01*
X670075Y418656D01*
X667522Y419340D01*
D02*
G37*
G36*
X642122D02*
X639478D01*
X636925Y418656D01*
X634635Y417334D01*
X632766Y415465D01*
X631444Y413175D01*
X630760Y410622D01*
Y407978D01*
X631444Y405425D01*
X632766Y403135D01*
X634635Y401266D01*
X636925Y399944D01*
X639478Y399260D01*
X642122D01*
X644675Y399944D01*
X646965Y401266D01*
X648834Y403135D01*
X650156Y405425D01*
X650840Y407978D01*
Y410622D01*
X650156Y413175D01*
X648834Y415465D01*
X646965Y417334D01*
X644675Y418656D01*
X642122Y419340D01*
D02*
G37*
G36*
X616722D02*
X614078D01*
X611525Y418656D01*
X609235Y417334D01*
X607366Y415465D01*
X606044Y413175D01*
X605360Y410622D01*
Y407978D01*
X606044Y405425D01*
X607366Y403135D01*
X609235Y401266D01*
X611525Y399944D01*
X614078Y399260D01*
X616722D01*
X619275Y399944D01*
X621565Y401266D01*
X623434Y403135D01*
X624756Y405425D01*
X625440Y407978D01*
Y410622D01*
X624756Y413175D01*
X623434Y415465D01*
X621565Y417334D01*
X619275Y418656D01*
X616722Y419340D01*
D02*
G37*
G36*
X591322D02*
X588678D01*
X586125Y418656D01*
X583835Y417334D01*
X581966Y415465D01*
X580644Y413175D01*
X579960Y410622D01*
Y407978D01*
X580644Y405425D01*
X581966Y403135D01*
X583835Y401266D01*
X586125Y399944D01*
X588678Y399260D01*
X591322D01*
X593875Y399944D01*
X596165Y401266D01*
X598034Y403135D01*
X599356Y405425D01*
X600040Y407978D01*
Y410622D01*
X599356Y413175D01*
X598034Y415465D01*
X596165Y417334D01*
X593875Y418656D01*
X591322Y419340D01*
D02*
G37*
G36*
X565922D02*
X563278D01*
X560725Y418656D01*
X558435Y417334D01*
X556566Y415465D01*
X555244Y413175D01*
X554560Y410622D01*
Y407978D01*
X555244Y405425D01*
X556566Y403135D01*
X558435Y401266D01*
X560725Y399944D01*
X563278Y399260D01*
X565922D01*
X568475Y399944D01*
X570765Y401266D01*
X572634Y403135D01*
X573956Y405425D01*
X574640Y407978D01*
Y410622D01*
X573956Y413175D01*
X572634Y415465D01*
X570765Y417334D01*
X568475Y418656D01*
X565922Y419340D01*
D02*
G37*
G36*
X540522D02*
X537878D01*
X535325Y418656D01*
X533035Y417334D01*
X531166Y415465D01*
X529844Y413175D01*
X529160Y410622D01*
Y407978D01*
X529844Y405425D01*
X531166Y403135D01*
X533035Y401266D01*
X535325Y399944D01*
X537878Y399260D01*
X540522D01*
X543075Y399944D01*
X545365Y401266D01*
X547234Y403135D01*
X548556Y405425D01*
X549240Y407978D01*
Y410622D01*
X548556Y413175D01*
X547234Y415465D01*
X545365Y417334D01*
X543075Y418656D01*
X540522Y419340D01*
D02*
G37*
G36*
X515122D02*
X512478D01*
X509925Y418656D01*
X507635Y417334D01*
X505766Y415465D01*
X504444Y413175D01*
X503760Y410622D01*
Y407978D01*
X504444Y405425D01*
X505766Y403135D01*
X507635Y401266D01*
X509925Y399944D01*
X512478Y399260D01*
X515122D01*
X517675Y399944D01*
X519965Y401266D01*
X521834Y403135D01*
X523156Y405425D01*
X523840Y407978D01*
Y410622D01*
X523156Y413175D01*
X521834Y415465D01*
X519965Y417334D01*
X517675Y418656D01*
X515122Y419340D01*
D02*
G37*
G36*
X489722D02*
X487078D01*
X484525Y418656D01*
X482235Y417334D01*
X480366Y415465D01*
X479044Y413175D01*
X478360Y410622D01*
Y407978D01*
X479044Y405425D01*
X480366Y403135D01*
X482235Y401266D01*
X484525Y399944D01*
X487078Y399260D01*
X489722D01*
X492275Y399944D01*
X494565Y401266D01*
X496434Y403135D01*
X497756Y405425D01*
X498440Y407978D01*
Y410622D01*
X497756Y413175D01*
X496434Y415465D01*
X494565Y417334D01*
X492275Y418656D01*
X489722Y419340D01*
D02*
G37*
G36*
X464322D02*
X461678D01*
X459125Y418656D01*
X456835Y417334D01*
X454966Y415465D01*
X453644Y413175D01*
X452960Y410622D01*
Y407978D01*
X453644Y405425D01*
X454966Y403135D01*
X456835Y401266D01*
X459125Y399944D01*
X461678Y399260D01*
X464322D01*
X466875Y399944D01*
X469165Y401266D01*
X471034Y403135D01*
X472356Y405425D01*
X473040Y407978D01*
Y410622D01*
X472356Y413175D01*
X471034Y415465D01*
X469165Y417334D01*
X466875Y418656D01*
X464322Y419340D01*
D02*
G37*
G36*
X447640Y408030D02*
X438870D01*
Y399260D01*
X438922D01*
X441475Y399944D01*
X443765Y401266D01*
X445634Y403135D01*
X446956Y405425D01*
X447640Y407978D01*
Y408030D01*
D02*
G37*
G36*
X436330D02*
X427560D01*
Y407978D01*
X428244Y405425D01*
X429566Y403135D01*
X431435Y401266D01*
X433725Y399944D01*
X436278Y399260D01*
X436330D01*
Y408030D01*
D02*
G37*
G36*
X422240Y419340D02*
X402160D01*
Y399260D01*
X422240D01*
Y419340D01*
D02*
G37*
G36*
X65270Y242470D02*
Y238270D01*
X69470D01*
X68697Y240138D01*
X67138Y241697D01*
X65270Y242470D01*
D02*
G37*
G36*
X62730D02*
X60862Y241697D01*
X59303Y240138D01*
X58530Y238270D01*
X62730D01*
Y242470D01*
D02*
G37*
G36*
X69470Y235730D02*
X65270D01*
Y231530D01*
X67138Y232303D01*
X68697Y233862D01*
X69470Y235730D01*
D02*
G37*
G36*
X62730D02*
X58530D01*
X59303Y233862D01*
X60862Y232303D01*
X62730Y231530D01*
Y235730D01*
D02*
G37*
G36*
X190270Y231470D02*
Y227270D01*
X194470D01*
X193697Y229138D01*
X192138Y230697D01*
X190270Y231470D01*
D02*
G37*
G36*
X187730D02*
X185862Y230697D01*
X184303Y229138D01*
X183530Y227270D01*
X187730D01*
Y231470D01*
D02*
G37*
G36*
X194470Y224730D02*
X190270D01*
Y220530D01*
X192138Y221303D01*
X193697Y222862D01*
X194470Y224730D01*
D02*
G37*
G36*
X187730D02*
X183530D01*
X184303Y222862D01*
X185862Y221303D01*
X187730Y220530D01*
Y224730D01*
D02*
G37*
G36*
X1060220Y215420D02*
Y211220D01*
X1064420D01*
X1063647Y213088D01*
X1062088Y214647D01*
X1060220Y215420D01*
D02*
G37*
G36*
X1057680D02*
X1055812Y214647D01*
X1054253Y213088D01*
X1053480Y211220D01*
X1057680D01*
Y215420D01*
D02*
G37*
G36*
X1064420Y208680D02*
X1060220D01*
Y204480D01*
X1062088Y205253D01*
X1063647Y206812D01*
X1064420Y208680D01*
D02*
G37*
G36*
X1057680D02*
X1053480D01*
X1054253Y206812D01*
X1055812Y205253D01*
X1057680Y204480D01*
Y208680D01*
D02*
G37*
G36*
X769122Y190740D02*
X766478D01*
X763925Y190056D01*
X761635Y188734D01*
X759766Y186865D01*
X758444Y184575D01*
X757760Y182022D01*
Y179378D01*
X758444Y176825D01*
X759766Y174535D01*
X761635Y172666D01*
X763925Y171344D01*
X766478Y170660D01*
X769122D01*
X771675Y171344D01*
X773965Y172666D01*
X775834Y174535D01*
X777156Y176825D01*
X777840Y179378D01*
Y182022D01*
X777156Y184575D01*
X775834Y186865D01*
X773965Y188734D01*
X771675Y190056D01*
X769122Y190740D01*
D02*
G37*
G36*
X743722D02*
X741078D01*
X738525Y190056D01*
X736235Y188734D01*
X734366Y186865D01*
X733044Y184575D01*
X732360Y182022D01*
Y179378D01*
X733044Y176825D01*
X734366Y174535D01*
X736235Y172666D01*
X738525Y171344D01*
X741078Y170660D01*
X743722D01*
X746275Y171344D01*
X748565Y172666D01*
X750434Y174535D01*
X751756Y176825D01*
X752440Y179378D01*
Y182022D01*
X751756Y184575D01*
X750434Y186865D01*
X748565Y188734D01*
X746275Y190056D01*
X743722Y190740D01*
D02*
G37*
G36*
X718322D02*
X715678D01*
X713125Y190056D01*
X710835Y188734D01*
X708966Y186865D01*
X707644Y184575D01*
X706960Y182022D01*
Y179378D01*
X707644Y176825D01*
X708966Y174535D01*
X710835Y172666D01*
X713125Y171344D01*
X715678Y170660D01*
X718322D01*
X720875Y171344D01*
X723165Y172666D01*
X725034Y174535D01*
X726356Y176825D01*
X727040Y179378D01*
Y182022D01*
X726356Y184575D01*
X725034Y186865D01*
X723165Y188734D01*
X720875Y190056D01*
X718322Y190740D01*
D02*
G37*
G36*
X692922D02*
X690278D01*
X687725Y190056D01*
X685435Y188734D01*
X683566Y186865D01*
X682244Y184575D01*
X681560Y182022D01*
Y179378D01*
X682244Y176825D01*
X683566Y174535D01*
X685435Y172666D01*
X687725Y171344D01*
X690278Y170660D01*
X692922D01*
X695475Y171344D01*
X697765Y172666D01*
X699634Y174535D01*
X700956Y176825D01*
X701640Y179378D01*
Y182022D01*
X700956Y184575D01*
X699634Y186865D01*
X697765Y188734D01*
X695475Y190056D01*
X692922Y190740D01*
D02*
G37*
G36*
X667522D02*
X664878D01*
X662325Y190056D01*
X660035Y188734D01*
X658166Y186865D01*
X656844Y184575D01*
X656160Y182022D01*
Y179378D01*
X656844Y176825D01*
X658166Y174535D01*
X660035Y172666D01*
X662325Y171344D01*
X664878Y170660D01*
X667522D01*
X670075Y171344D01*
X672365Y172666D01*
X674234Y174535D01*
X675556Y176825D01*
X676240Y179378D01*
Y182022D01*
X675556Y184575D01*
X674234Y186865D01*
X672365Y188734D01*
X670075Y190056D01*
X667522Y190740D01*
D02*
G37*
G36*
X642122D02*
X639478D01*
X636925Y190056D01*
X634635Y188734D01*
X632766Y186865D01*
X631444Y184575D01*
X630760Y182022D01*
Y179378D01*
X631444Y176825D01*
X632766Y174535D01*
X634635Y172666D01*
X636925Y171344D01*
X639478Y170660D01*
X642122D01*
X644675Y171344D01*
X646965Y172666D01*
X648834Y174535D01*
X650156Y176825D01*
X650840Y179378D01*
Y182022D01*
X650156Y184575D01*
X648834Y186865D01*
X646965Y188734D01*
X644675Y190056D01*
X642122Y190740D01*
D02*
G37*
G36*
X616722D02*
X614078D01*
X611525Y190056D01*
X609235Y188734D01*
X607366Y186865D01*
X606044Y184575D01*
X605360Y182022D01*
Y179378D01*
X606044Y176825D01*
X607366Y174535D01*
X609235Y172666D01*
X611525Y171344D01*
X614078Y170660D01*
X616722D01*
X619275Y171344D01*
X621565Y172666D01*
X623434Y174535D01*
X624756Y176825D01*
X625440Y179378D01*
Y182022D01*
X624756Y184575D01*
X623434Y186865D01*
X621565Y188734D01*
X619275Y190056D01*
X616722Y190740D01*
D02*
G37*
G36*
X591322D02*
X588678D01*
X586125Y190056D01*
X583835Y188734D01*
X581966Y186865D01*
X580644Y184575D01*
X579960Y182022D01*
Y179378D01*
X580644Y176825D01*
X581966Y174535D01*
X583835Y172666D01*
X586125Y171344D01*
X588678Y170660D01*
X591322D01*
X593875Y171344D01*
X596165Y172666D01*
X598034Y174535D01*
X599356Y176825D01*
X600040Y179378D01*
Y182022D01*
X599356Y184575D01*
X598034Y186865D01*
X596165Y188734D01*
X593875Y190056D01*
X591322Y190740D01*
D02*
G37*
G36*
X565922D02*
X563278D01*
X560725Y190056D01*
X558435Y188734D01*
X556566Y186865D01*
X555244Y184575D01*
X554560Y182022D01*
Y179378D01*
X555244Y176825D01*
X556566Y174535D01*
X558435Y172666D01*
X560725Y171344D01*
X563278Y170660D01*
X565922D01*
X568475Y171344D01*
X570765Y172666D01*
X572634Y174535D01*
X573956Y176825D01*
X574640Y179378D01*
Y182022D01*
X573956Y184575D01*
X572634Y186865D01*
X570765Y188734D01*
X568475Y190056D01*
X565922Y190740D01*
D02*
G37*
G36*
X540522D02*
X537878D01*
X535325Y190056D01*
X533035Y188734D01*
X531166Y186865D01*
X529844Y184575D01*
X529160Y182022D01*
Y179378D01*
X529844Y176825D01*
X531166Y174535D01*
X533035Y172666D01*
X535325Y171344D01*
X537878Y170660D01*
X540522D01*
X543075Y171344D01*
X545365Y172666D01*
X547234Y174535D01*
X548556Y176825D01*
X549240Y179378D01*
Y182022D01*
X548556Y184575D01*
X547234Y186865D01*
X545365Y188734D01*
X543075Y190056D01*
X540522Y190740D01*
D02*
G37*
G36*
X515122D02*
X512478D01*
X509925Y190056D01*
X507635Y188734D01*
X505766Y186865D01*
X504444Y184575D01*
X503760Y182022D01*
Y179378D01*
X504444Y176825D01*
X505766Y174535D01*
X507635Y172666D01*
X509925Y171344D01*
X512478Y170660D01*
X515122D01*
X517675Y171344D01*
X519965Y172666D01*
X521834Y174535D01*
X523156Y176825D01*
X523840Y179378D01*
Y182022D01*
X523156Y184575D01*
X521834Y186865D01*
X519965Y188734D01*
X517675Y190056D01*
X515122Y190740D01*
D02*
G37*
G36*
X489722D02*
X487078D01*
X484525Y190056D01*
X482235Y188734D01*
X480366Y186865D01*
X479044Y184575D01*
X478360Y182022D01*
Y179378D01*
X479044Y176825D01*
X480366Y174535D01*
X482235Y172666D01*
X484525Y171344D01*
X487078Y170660D01*
X489722D01*
X492275Y171344D01*
X494565Y172666D01*
X496434Y174535D01*
X497756Y176825D01*
X498440Y179378D01*
Y182022D01*
X497756Y184575D01*
X496434Y186865D01*
X494565Y188734D01*
X492275Y190056D01*
X489722Y190740D01*
D02*
G37*
G36*
X464322D02*
X461678D01*
X459125Y190056D01*
X456835Y188734D01*
X454966Y186865D01*
X453644Y184575D01*
X452960Y182022D01*
Y179378D01*
X453644Y176825D01*
X454966Y174535D01*
X456835Y172666D01*
X459125Y171344D01*
X461678Y170660D01*
X464322D01*
X466875Y171344D01*
X469165Y172666D01*
X471034Y174535D01*
X472356Y176825D01*
X473040Y179378D01*
Y182022D01*
X472356Y184575D01*
X471034Y186865D01*
X469165Y188734D01*
X466875Y190056D01*
X464322Y190740D01*
D02*
G37*
G36*
X438922D02*
X436278D01*
X433725Y190056D01*
X431435Y188734D01*
X429566Y186865D01*
X428244Y184575D01*
X427560Y182022D01*
Y179378D01*
X428244Y176825D01*
X429566Y174535D01*
X431435Y172666D01*
X433725Y171344D01*
X436278Y170660D01*
X438922D01*
X441475Y171344D01*
X443765Y172666D01*
X445634Y174535D01*
X446956Y176825D01*
X447640Y179378D01*
Y182022D01*
X446956Y184575D01*
X445634Y186865D01*
X443765Y188734D01*
X441475Y190056D01*
X438922Y190740D01*
D02*
G37*
G36*
X422240D02*
X402160D01*
Y170660D01*
X422240D01*
Y190740D01*
D02*
G37*
G36*
X1300040Y170840D02*
X1291270D01*
Y162070D01*
X1300040D01*
Y170840D01*
D02*
G37*
G36*
X1288730D02*
X1279960D01*
Y162070D01*
X1288730D01*
Y170840D01*
D02*
G37*
G36*
X1300040Y159530D02*
X1291270D01*
Y150760D01*
X1300040D01*
Y159530D01*
D02*
G37*
G36*
X1288730D02*
X1279960D01*
Y150760D01*
X1288730D01*
Y159530D01*
D02*
G37*
G36*
X68622Y152040D02*
X68570D01*
Y143270D01*
X77340D01*
Y143322D01*
X76656Y145875D01*
X75334Y148165D01*
X73465Y150034D01*
X71175Y151356D01*
X68622Y152040D01*
D02*
G37*
G36*
X66030D02*
X65978D01*
X63425Y151356D01*
X61135Y150034D01*
X59266Y148165D01*
X57944Y145875D01*
X57260Y143322D01*
Y143270D01*
X66030D01*
Y152040D01*
D02*
G37*
G36*
X270040Y153140D02*
X249960D01*
Y133060D01*
X270040D01*
Y153140D01*
D02*
G37*
G36*
X102740Y152040D02*
X82660D01*
Y131960D01*
X102740D01*
Y152040D01*
D02*
G37*
G36*
X77340Y140730D02*
X68570D01*
Y131960D01*
X68622D01*
X71175Y132644D01*
X73465Y133966D01*
X75334Y135835D01*
X76656Y138125D01*
X77340Y140678D01*
Y140730D01*
D02*
G37*
G36*
X66030D02*
X57260D01*
Y140678D01*
X57944Y138125D01*
X59266Y135835D01*
X61135Y133966D01*
X63425Y132644D01*
X65978Y131960D01*
X66030D01*
Y140730D01*
D02*
G37*
G36*
X1291322Y145440D02*
X1288678D01*
X1286125Y144756D01*
X1283835Y143434D01*
X1281966Y141565D01*
X1280644Y139275D01*
X1279960Y136722D01*
Y134078D01*
X1280644Y131525D01*
X1281966Y129235D01*
X1283835Y127366D01*
X1286125Y126044D01*
X1288678Y125360D01*
X1291322D01*
X1293875Y126044D01*
X1296165Y127366D01*
X1298034Y129235D01*
X1299356Y131525D01*
X1300040Y134078D01*
Y136722D01*
X1299356Y139275D01*
X1298034Y141565D01*
X1296165Y143434D01*
X1293875Y144756D01*
X1291322Y145440D01*
D02*
G37*
G36*
Y120040D02*
X1288678D01*
X1286125Y119356D01*
X1283835Y118034D01*
X1281966Y116165D01*
X1280644Y113875D01*
X1279960Y111322D01*
Y108678D01*
X1280644Y106125D01*
X1281966Y103835D01*
X1283835Y101966D01*
X1286125Y100644D01*
X1288678Y99960D01*
X1291322D01*
X1293875Y100644D01*
X1296165Y101966D01*
X1298034Y103835D01*
X1299356Y106125D01*
X1300040Y108678D01*
Y111322D01*
X1299356Y113875D01*
X1298034Y116165D01*
X1296165Y118034D01*
X1293875Y119356D01*
X1291322Y120040D01*
D02*
G37*
G36*
X689522Y96040D02*
X689470D01*
Y87270D01*
X698240D01*
Y87322D01*
X697556Y89875D01*
X696234Y92165D01*
X694365Y94034D01*
X692075Y95356D01*
X689522Y96040D01*
D02*
G37*
G36*
X686930D02*
X686878D01*
X684325Y95356D01*
X682035Y94034D01*
X680166Y92165D01*
X678844Y89875D01*
X678160Y87322D01*
Y87270D01*
X686930D01*
Y96040D01*
D02*
G37*
G36*
X774440D02*
X754360D01*
Y75960D01*
X774440D01*
Y96040D01*
D02*
G37*
G36*
X740322D02*
X737678D01*
X735125Y95356D01*
X732835Y94034D01*
X730966Y92165D01*
X729644Y89875D01*
X728960Y87322D01*
Y84678D01*
X729644Y82125D01*
X730966Y79835D01*
X732835Y77966D01*
X735125Y76644D01*
X737678Y75960D01*
X740322D01*
X742875Y76644D01*
X745165Y77966D01*
X747034Y79835D01*
X748356Y82125D01*
X749040Y84678D01*
Y87322D01*
X748356Y89875D01*
X747034Y92165D01*
X745165Y94034D01*
X742875Y95356D01*
X740322Y96040D01*
D02*
G37*
G36*
X714922D02*
X712278D01*
X709725Y95356D01*
X707435Y94034D01*
X705566Y92165D01*
X704244Y89875D01*
X703560Y87322D01*
Y84678D01*
X704244Y82125D01*
X705566Y79835D01*
X707435Y77966D01*
X709725Y76644D01*
X712278Y75960D01*
X714922D01*
X717475Y76644D01*
X719765Y77966D01*
X721634Y79835D01*
X722956Y82125D01*
X723640Y84678D01*
Y87322D01*
X722956Y89875D01*
X721634Y92165D01*
X719765Y94034D01*
X717475Y95356D01*
X714922Y96040D01*
D02*
G37*
G36*
X698240Y84730D02*
X689470D01*
Y75960D01*
X689522D01*
X692075Y76644D01*
X694365Y77966D01*
X696234Y79835D01*
X697556Y82125D01*
X698240Y84678D01*
Y84730D01*
D02*
G37*
G36*
X686930D02*
X678160D01*
Y84678D01*
X678844Y82125D01*
X680166Y79835D01*
X682035Y77966D01*
X684325Y76644D01*
X686878Y75960D01*
X686930D01*
Y84730D01*
D02*
G37*
G36*
X664122Y96040D02*
X661478D01*
X658925Y95356D01*
X656635Y94034D01*
X654766Y92165D01*
X653444Y89875D01*
X652760Y87322D01*
Y84678D01*
X653444Y82125D01*
X654766Y79835D01*
X656635Y77966D01*
X658925Y76644D01*
X661478Y75960D01*
X664122D01*
X666675Y76644D01*
X668965Y77966D01*
X670834Y79835D01*
X672156Y82125D01*
X672840Y84678D01*
Y87322D01*
X672156Y89875D01*
X670834Y92165D01*
X668965Y94034D01*
X666675Y95356D01*
X664122Y96040D01*
D02*
G37*
G36*
X1291322Y94640D02*
X1288678D01*
X1286125Y93956D01*
X1283835Y92634D01*
X1281966Y90765D01*
X1280644Y88475D01*
X1279960Y85922D01*
Y83278D01*
X1280644Y80725D01*
X1281966Y78435D01*
X1283835Y76566D01*
X1286125Y75244D01*
X1288678Y74560D01*
X1291322D01*
X1293875Y75244D01*
X1296165Y76566D01*
X1298034Y78435D01*
X1299356Y80725D01*
X1300040Y83278D01*
Y85922D01*
X1299356Y88475D01*
X1298034Y90765D01*
X1296165Y92634D01*
X1293875Y93956D01*
X1291322Y94640D01*
D02*
G37*
G36*
X261322Y76940D02*
X261270D01*
Y68170D01*
X270040D01*
Y68222D01*
X269356Y70775D01*
X268034Y73065D01*
X266165Y74934D01*
X263875Y76256D01*
X261322Y76940D01*
D02*
G37*
G36*
X258730D02*
X258678D01*
X256125Y76256D01*
X253835Y74934D01*
X251966Y73065D01*
X250644Y70775D01*
X249960Y68222D01*
Y68170D01*
X258730D01*
Y76940D01*
D02*
G37*
G36*
X270040Y65630D02*
X261270D01*
Y56860D01*
X261322D01*
X263875Y57544D01*
X266165Y58866D01*
X268034Y60735D01*
X269356Y63025D01*
X270040Y65578D01*
Y65630D01*
D02*
G37*
G36*
X258730D02*
X249960D01*
Y65578D01*
X250644Y63025D01*
X251966Y60735D01*
X253835Y58866D01*
X256125Y57544D01*
X258678Y56860D01*
X258730D01*
Y65630D01*
D02*
G37*
G36*
X1011170Y54370D02*
Y50170D01*
X1015370D01*
X1014597Y52038D01*
X1013038Y53597D01*
X1011170Y54370D01*
D02*
G37*
G36*
X1008630D02*
X1006762Y53597D01*
X1005203Y52038D01*
X1004430Y50170D01*
X1008630D01*
Y54370D01*
D02*
G37*
G36*
X1291322Y69240D02*
X1288678D01*
X1286125Y68556D01*
X1283835Y67234D01*
X1281966Y65365D01*
X1280644Y63075D01*
X1279960Y60522D01*
Y57878D01*
X1280644Y55325D01*
X1281966Y53035D01*
X1283835Y51166D01*
X1286125Y49844D01*
X1288678Y49160D01*
X1291322D01*
X1293875Y49844D01*
X1296165Y51166D01*
X1298034Y53035D01*
X1299356Y55325D01*
X1300040Y57878D01*
Y60522D01*
X1299356Y63075D01*
X1298034Y65365D01*
X1296165Y67234D01*
X1293875Y68556D01*
X1291322Y69240D01*
D02*
G37*
G36*
X1015370Y47630D02*
X1011170D01*
Y43430D01*
X1013038Y44203D01*
X1014597Y45762D01*
X1015370Y47630D01*
D02*
G37*
G36*
X1008630D02*
X1004430D01*
X1005203Y45762D01*
X1006762Y44203D01*
X1008630Y43430D01*
Y47630D01*
D02*
G37*
%LPD*%
D39*
X1283000Y956400D02*
D03*
D40*
Y905600D02*
D03*
D41*
X662800Y86000D02*
D03*
X688200D02*
D03*
X713600D02*
D03*
X739000D02*
D03*
X1290000Y59200D02*
D03*
Y84600D02*
D03*
Y110000D02*
D03*
Y135400D02*
D03*
X437600Y409300D02*
D03*
X463000D02*
D03*
X564600D02*
D03*
X513800D02*
D03*
X488400D02*
D03*
X590000D02*
D03*
X767800D02*
D03*
X742400D02*
D03*
X717000D02*
D03*
X691600D02*
D03*
X666200D02*
D03*
X640800D02*
D03*
X615400D02*
D03*
X539200D02*
D03*
X742400Y180700D02*
D03*
X666200D02*
D03*
X640800D02*
D03*
X615400D02*
D03*
X590000D02*
D03*
X564600D02*
D03*
X539200D02*
D03*
X513800D02*
D03*
X488400D02*
D03*
X463000D02*
D03*
X437600D02*
D03*
X767800D02*
D03*
X717000D02*
D03*
X691600D02*
D03*
X471200Y751900D02*
D03*
Y726500D02*
D03*
Y777300D02*
D03*
Y828100D02*
D03*
Y802700D02*
D03*
X318800Y828100D02*
D03*
Y802700D02*
D03*
Y726500D02*
D03*
Y751900D02*
D03*
Y777300D02*
D03*
X1191200Y711900D02*
D03*
Y686500D02*
D03*
Y737300D02*
D03*
Y788100D02*
D03*
Y762700D02*
D03*
X1038800Y788100D02*
D03*
Y762700D02*
D03*
Y686500D02*
D03*
Y711900D02*
D03*
Y737300D02*
D03*
X260000Y66900D02*
D03*
X67300Y142000D02*
D03*
D42*
X764400Y86000D02*
D03*
X412200Y180700D02*
D03*
X412200Y409300D02*
D03*
X318800Y853500D02*
D03*
X471200D02*
D03*
X1038800Y813500D02*
D03*
X1191200D02*
D03*
X260000Y143100D02*
D03*
X92700Y142000D02*
D03*
D43*
X1290000Y160800D02*
D03*
D44*
X814000Y726000D02*
D03*
X1058950Y209950D02*
D03*
X1009900Y48900D02*
D03*
X721000Y727000D02*
D03*
X72050Y777300D02*
D03*
X74930Y853500D02*
D03*
X64000Y237000D02*
D03*
X189000Y226000D02*
D03*
M02*
