G04*
G04 #@! TF.GenerationSoftware,Altium Limited,Altium Designer,22.8.2 (66)*
G04*
G04 Layer_Color=8388736*
%FSLAX44Y44*%
%MOMM*%
G71*
G04*
G04 #@! TF.SameCoordinates,59791082-BFED-418F-BB91-07DD3E29337C*
G04*
G04*
G04 #@! TF.FilePolarity,Negative*
G04*
G01*
G75*
%ADD22R,1.3032X1.5832*%
%ADD23R,2.1232X1.5032*%
%ADD24R,1.4032X1.7232*%
%ADD25R,1.7232X1.4032*%
%ADD26R,1.3532X1.6532*%
%ADD27R,4.9032X2.2532*%
%ADD28R,2.8732X2.7432*%
%ADD29R,0.9652X1.4732*%
%ADD30R,3.5732X2.5732*%
%ADD31R,2.5732X3.5732*%
%ADD32R,2.1532X2.1532*%
%ADD33C,2.1532*%
%ADD34C,1.7032*%
%ADD35R,1.7032X1.7032*%
%ADD36R,1.7032X1.7032*%
%ADD37C,0.8032*%
D22*
X298150Y560000D02*
D03*
X315850D02*
D03*
X1069150Y546000D02*
D03*
X1086850D02*
D03*
D23*
X64000Y333100D02*
D03*
Y306900D02*
D03*
X940000Y75100D02*
D03*
Y48900D02*
D03*
X63000Y477100D02*
D03*
Y450900D02*
D03*
X940000Y175100D02*
D03*
Y148900D02*
D03*
D24*
X162670Y853500D02*
D03*
X144930D02*
D03*
D25*
X721000Y814870D02*
D03*
Y797130D02*
D03*
D26*
X875000Y726000D02*
D03*
X893000D02*
D03*
D27*
X165500Y644250D02*
D03*
Y700750D02*
D03*
X898500Y596750D02*
D03*
Y653250D02*
D03*
D28*
X166000Y576300D02*
D03*
X142047Y777300D02*
D03*
X899247Y492000D02*
D03*
D29*
X189510Y576300D02*
D03*
X165557Y777300D02*
D03*
X922757Y492000D02*
D03*
D30*
X189000Y477050D02*
D03*
Y428950D02*
D03*
Y344050D02*
D03*
Y295950D02*
D03*
X989000Y411050D02*
D03*
Y362950D02*
D03*
X990000Y258050D02*
D03*
Y209950D02*
D03*
D31*
X448300Y560000D02*
D03*
X400200D02*
D03*
X1229050Y545000D02*
D03*
X1180950D02*
D03*
X843950Y813500D02*
D03*
X892050D02*
D03*
D32*
X1283000Y956400D02*
D03*
D33*
Y905600D02*
D03*
D34*
X662800Y86000D02*
D03*
X688200D02*
D03*
X713600D02*
D03*
X739000D02*
D03*
X1290000Y59200D02*
D03*
Y84600D02*
D03*
Y110000D02*
D03*
Y135400D02*
D03*
X437600Y409300D02*
D03*
X463000D02*
D03*
X564600D02*
D03*
X513800D02*
D03*
X488400D02*
D03*
X590000D02*
D03*
X767800D02*
D03*
X742400D02*
D03*
X717000D02*
D03*
X691600D02*
D03*
X666200D02*
D03*
X640800D02*
D03*
X615400D02*
D03*
X539200D02*
D03*
X742400Y180700D02*
D03*
X666200D02*
D03*
X640800D02*
D03*
X615400D02*
D03*
X590000D02*
D03*
X564600D02*
D03*
X539200D02*
D03*
X513800D02*
D03*
X488400D02*
D03*
X463000D02*
D03*
X437600D02*
D03*
X767800D02*
D03*
X717000D02*
D03*
X691600D02*
D03*
X471200Y751900D02*
D03*
Y726500D02*
D03*
Y777300D02*
D03*
Y828100D02*
D03*
Y802700D02*
D03*
X318800Y828100D02*
D03*
Y802700D02*
D03*
Y726500D02*
D03*
Y751900D02*
D03*
Y777300D02*
D03*
X1191200Y711900D02*
D03*
Y686500D02*
D03*
Y737300D02*
D03*
Y788100D02*
D03*
Y762700D02*
D03*
X1038800Y788100D02*
D03*
Y762700D02*
D03*
Y686500D02*
D03*
Y711900D02*
D03*
Y737300D02*
D03*
X260000Y66900D02*
D03*
X67300Y142000D02*
D03*
D35*
X764400Y86000D02*
D03*
X412200Y180700D02*
D03*
X412200Y409300D02*
D03*
X318800Y853500D02*
D03*
X471200D02*
D03*
X1038800Y813500D02*
D03*
X1191200D02*
D03*
X260000Y143100D02*
D03*
X92700Y142000D02*
D03*
D36*
X1290000Y160800D02*
D03*
D37*
X814000Y726000D02*
D03*
X1058950Y209950D02*
D03*
X1009900Y48900D02*
D03*
X721000Y727000D02*
D03*
X72050Y777300D02*
D03*
X74930Y853500D02*
D03*
X64000Y237000D02*
D03*
X189000Y226000D02*
D03*
M02*
